G04 (created by PCBNEW-RS274X (2012-apr-16-27)-stable) date Tue 12 Feb 2013 09:46:45 AM EST*
G01*
G70*
G90*
%MOIN*%
G04 Gerber Fmt 3.4, Leading zero omitted, Abs format*
%FSLAX34Y34*%
G04 APERTURE LIST*
%ADD10C,0.006000*%
%ADD11R,0.015700X0.023600*%
%ADD12R,0.023600X0.015700*%
%ADD13R,0.025000X0.045000*%
%ADD14R,0.009800X0.035400*%
%ADD15R,0.035400X0.009800*%
%ADD16R,0.057100X0.057100*%
%ADD17R,0.045000X0.025000*%
%ADD18R,0.035000X0.055000*%
%ADD19R,0.078700X0.063000*%
%ADD20R,0.009800X0.023600*%
%ADD21R,0.059100X0.098400*%
%ADD22R,0.007900X0.027600*%
%ADD23R,0.027600X0.007900*%
%ADD24C,0.078700*%
%ADD25R,0.055000X0.035000*%
%ADD26R,0.019700X0.035400*%
%ADD27R,0.039400X0.039400*%
%ADD28R,0.047200X0.068900*%
%ADD29R,0.068900X0.047200*%
%ADD30R,0.126000X0.047200*%
%ADD31R,0.060000X0.012500*%
%ADD32R,0.031400X0.031400*%
%ADD33R,0.009800X0.021000*%
%ADD34R,0.021000X0.009800*%
%ADD35R,0.033500X0.013800*%
%ADD36R,0.019700X0.031500*%
%ADD37R,0.020000X0.030000*%
%ADD38R,0.027600X0.039400*%
%ADD39R,0.036000X0.036000*%
%ADD40R,0.039400X0.023600*%
%ADD41O,0.022000X0.009800*%
%ADD42O,0.009800X0.022000*%
%ADD43R,0.185000X0.185000*%
%ADD44R,0.063000X0.059100*%
%ADD45R,0.047200X0.047200*%
%ADD46R,0.066900X0.094500*%
%ADD47R,0.059100X0.063000*%
%ADD48R,0.015700X0.059100*%
%ADD49R,0.009800X0.031500*%
%ADD50R,0.031500X0.009800*%
%ADD51R,0.315000X0.472500*%
%ADD52R,0.020900X0.020900*%
%ADD53C,0.008700*%
G04 APERTURE END LIST*
G54D10*
G54D11*
X69223Y-03180D03*
X69577Y-03180D03*
G54D12*
X69250Y-03533D03*
X69250Y-03887D03*
X67390Y-05967D03*
X67390Y-05613D03*
X68300Y-05357D03*
X68300Y-05003D03*
G54D13*
X63680Y-08000D03*
X64280Y-08000D03*
G54D14*
X29944Y-12844D03*
X30141Y-12844D03*
X29748Y-12844D03*
X29551Y-12844D03*
G54D15*
X30436Y-13139D03*
X30436Y-13335D03*
X30436Y-13729D03*
X30436Y-13533D03*
G54D14*
X29551Y-14025D03*
X29748Y-14025D03*
X30141Y-14025D03*
X29944Y-14025D03*
G54D15*
X29255Y-13533D03*
X29255Y-13729D03*
X29255Y-13335D03*
X29255Y-13139D03*
G54D16*
X29846Y-13434D03*
G54D17*
X67080Y-07120D03*
X67080Y-06520D03*
G54D18*
X48705Y-20650D03*
X47955Y-20650D03*
G54D13*
X48651Y-20002D03*
X48051Y-20002D03*
X09480Y-06860D03*
X08880Y-06860D03*
G54D19*
X17190Y-10770D03*
G54D20*
X17190Y-10219D03*
X16993Y-10219D03*
X16796Y-10219D03*
X16796Y-11321D03*
X17190Y-11321D03*
X16993Y-11321D03*
X17387Y-11321D03*
X17584Y-11321D03*
X17584Y-10219D03*
X17387Y-10219D03*
G54D11*
X67487Y-04460D03*
X67133Y-04460D03*
G54D21*
X69550Y-05270D03*
G54D22*
X69550Y-06018D03*
X69707Y-06018D03*
X69865Y-06018D03*
X69412Y-06018D03*
X69254Y-06018D03*
X69865Y-04522D03*
X69707Y-04521D03*
X69550Y-04521D03*
X69393Y-04521D03*
X69235Y-04521D03*
G54D23*
X68999Y-05270D03*
X68999Y-05427D03*
X68999Y-05585D03*
X68999Y-05113D03*
X68999Y-04955D03*
X68999Y-04798D03*
X68999Y-05742D03*
X70101Y-04798D03*
X70101Y-04955D03*
X70101Y-05113D03*
X70101Y-05270D03*
X70101Y-05427D03*
X70101Y-05585D03*
X70101Y-05742D03*
G54D24*
X75425Y-04515D03*
X76425Y-05515D03*
X74425Y-05515D03*
X74425Y-03515D03*
X76425Y-03515D03*
G54D11*
X33652Y-05945D03*
X33298Y-05945D03*
X34672Y-05920D03*
X34318Y-05920D03*
X33298Y-03240D03*
X33652Y-03240D03*
X34467Y-03240D03*
X34113Y-03240D03*
G54D13*
X36400Y-05240D03*
X35800Y-05240D03*
G54D25*
X36030Y-03525D03*
X36030Y-04275D03*
G54D26*
X04590Y-08720D03*
X04090Y-08720D03*
X03590Y-08720D03*
X03090Y-08720D03*
X05090Y-08720D03*
X05590Y-08720D03*
X06090Y-08720D03*
X04590Y-10720D03*
X05090Y-10720D03*
X05590Y-10720D03*
X06090Y-10720D03*
X04090Y-10720D03*
X03590Y-10720D03*
X03090Y-10720D03*
G54D27*
X72564Y-00648D03*
X73154Y-00648D03*
X73154Y-02222D03*
X72564Y-02222D03*
X71776Y-02222D03*
X71186Y-02222D03*
X71186Y-00648D03*
X71776Y-00648D03*
G54D28*
X17810Y-12780D03*
X16810Y-12780D03*
X28475Y-14865D03*
X29475Y-14865D03*
G54D29*
X20760Y-15070D03*
X20760Y-16070D03*
G54D28*
X30420Y-14865D03*
X31420Y-14865D03*
G54D29*
X54898Y-37666D03*
X54898Y-38666D03*
G54D30*
X69634Y-34683D03*
X72312Y-34683D03*
X69634Y-33108D03*
X72312Y-33108D03*
X69634Y-31533D03*
X72312Y-31533D03*
X69634Y-29958D03*
X72312Y-29958D03*
X69634Y-28384D03*
X72312Y-28384D03*
X69634Y-26809D03*
X72312Y-26809D03*
X69634Y-25234D03*
X72312Y-25234D03*
X69634Y-23659D03*
X72312Y-23659D03*
G54D31*
X35054Y-03747D03*
X35054Y-03997D03*
X35054Y-04497D03*
X35054Y-04247D03*
X35054Y-05247D03*
X35054Y-05497D03*
X35054Y-04997D03*
X35054Y-04747D03*
X32854Y-04747D03*
X32854Y-04997D03*
X32854Y-05497D03*
X32854Y-05247D03*
X32854Y-04247D03*
X32854Y-04497D03*
X32854Y-03997D03*
X32854Y-03747D03*
G54D32*
X74148Y-20042D03*
X74738Y-20042D03*
X74148Y-20790D03*
X74738Y-20790D03*
G54D33*
X51088Y-19253D03*
X50891Y-19253D03*
X50694Y-19253D03*
X50498Y-19253D03*
X50301Y-19253D03*
X50104Y-19253D03*
G54D34*
X49867Y-19490D03*
X49867Y-19687D03*
X49867Y-19884D03*
X49867Y-20081D03*
X49867Y-20277D03*
X49867Y-20474D03*
X49867Y-20671D03*
X49867Y-20868D03*
G54D33*
X50104Y-21105D03*
X50301Y-21105D03*
X50498Y-21105D03*
X50694Y-21105D03*
X50891Y-21105D03*
X51088Y-21105D03*
G54D34*
X51325Y-20868D03*
X51325Y-20671D03*
X51325Y-20474D03*
X51325Y-20277D03*
X51325Y-20081D03*
X51325Y-19884D03*
X51325Y-19687D03*
X51325Y-19490D03*
G54D12*
X68170Y-03268D03*
X68170Y-03622D03*
X68600Y-03268D03*
X68600Y-03622D03*
G54D11*
X22263Y-04420D03*
X22617Y-04420D03*
X22273Y-03520D03*
X22627Y-03520D03*
X25300Y-10435D03*
X24946Y-10435D03*
X24552Y-10790D03*
X24198Y-10790D03*
G54D12*
X25596Y-12817D03*
X25596Y-12463D03*
G54D11*
X34456Y-12005D03*
X34102Y-12005D03*
X34456Y-13005D03*
X34102Y-13005D03*
X31003Y-12980D03*
X31357Y-12980D03*
G54D12*
X71760Y-03933D03*
X71760Y-04287D03*
G54D11*
X31873Y-15520D03*
X31519Y-15520D03*
X75703Y-20022D03*
X76057Y-20022D03*
X75703Y-20770D03*
X76057Y-20770D03*
X31401Y-13788D03*
X31047Y-13788D03*
G54D12*
X28200Y-13712D03*
X28200Y-13358D03*
G54D11*
X18391Y-09727D03*
X18037Y-09727D03*
G54D12*
X17544Y-08664D03*
X17544Y-09018D03*
X64925Y-08107D03*
X64925Y-07753D03*
X67705Y-08122D03*
X67705Y-07768D03*
G54D11*
X69612Y-06435D03*
X69258Y-06435D03*
X70727Y-04405D03*
X70373Y-04405D03*
G54D12*
X71760Y-04653D03*
X71760Y-05007D03*
G54D11*
X72502Y-04470D03*
X72148Y-04470D03*
X72492Y-03745D03*
X72138Y-03745D03*
G54D12*
X67705Y-03283D03*
X67705Y-03637D03*
X54815Y-36985D03*
X54815Y-36631D03*
X55378Y-36985D03*
X55378Y-36631D03*
G54D11*
X57886Y-38245D03*
X57532Y-38245D03*
X27464Y-15756D03*
X27818Y-15756D03*
X66323Y-00800D03*
X66677Y-00800D03*
G54D12*
X08615Y-09372D03*
X08615Y-09018D03*
G54D11*
X09088Y-09020D03*
X09442Y-09020D03*
G54D12*
X02590Y-09268D03*
X02590Y-09622D03*
X06615Y-09218D03*
X06615Y-09572D03*
X06615Y-08443D03*
X06615Y-08797D03*
X02590Y-08493D03*
X02590Y-08847D03*
X22714Y-15664D03*
X22714Y-15310D03*
G54D11*
X22647Y-14570D03*
X22293Y-14570D03*
G54D12*
X22163Y-16845D03*
X22163Y-16491D03*
G54D11*
X30338Y-12410D03*
X29984Y-12410D03*
X30377Y-15874D03*
X30023Y-15874D03*
G54D12*
X27545Y-10173D03*
X27545Y-10527D03*
G54D11*
X31193Y-13400D03*
X31547Y-13400D03*
X66323Y-01200D03*
X66677Y-01200D03*
X28912Y-14095D03*
X28558Y-14095D03*
G54D12*
X17033Y-09392D03*
X17033Y-09746D03*
G54D11*
X19316Y-12010D03*
X18962Y-12010D03*
G54D12*
X17544Y-09392D03*
X17544Y-09746D03*
X66120Y-02598D03*
X66120Y-02952D03*
X28192Y-12666D03*
X28192Y-13020D03*
G54D11*
X16658Y-09707D03*
X16304Y-09707D03*
G54D17*
X06690Y-05745D03*
X06690Y-05145D03*
X02715Y-05720D03*
X02715Y-05120D03*
G54D13*
X65165Y-02055D03*
X65765Y-02055D03*
G54D17*
X65370Y-02585D03*
X65370Y-03185D03*
G54D13*
X29634Y-15874D03*
X29034Y-15874D03*
X27262Y-14418D03*
X27862Y-14418D03*
G54D17*
X07640Y-07570D03*
X07640Y-08170D03*
G54D13*
X62575Y-03685D03*
X63175Y-03685D03*
G54D17*
X63740Y-07430D03*
X63740Y-06830D03*
G54D13*
X19439Y-11341D03*
X18839Y-11341D03*
G54D17*
X64650Y-01950D03*
X64650Y-02550D03*
X01715Y-07470D03*
X01715Y-08070D03*
G54D13*
X05540Y-11620D03*
X04940Y-11620D03*
X03640Y-11620D03*
X04240Y-11620D03*
X63340Y-04700D03*
X62740Y-04700D03*
G54D17*
X08015Y-09820D03*
X08015Y-09220D03*
G54D13*
X32587Y-14811D03*
X31987Y-14811D03*
G54D17*
X67765Y-07080D03*
X67765Y-06480D03*
X66720Y-02470D03*
X66720Y-03070D03*
X68600Y-07060D03*
X68600Y-06460D03*
G54D13*
X70845Y-03540D03*
X70245Y-03540D03*
X69290Y-02700D03*
X69890Y-02700D03*
G54D17*
X35122Y-12260D03*
X35122Y-12860D03*
X04615Y-07595D03*
X04615Y-08195D03*
G54D18*
X65075Y-01375D03*
X65825Y-01375D03*
X69085Y-02060D03*
X69835Y-02060D03*
X48923Y-21656D03*
X48173Y-21656D03*
X32855Y-13740D03*
X32105Y-13740D03*
G54D25*
X55662Y-38165D03*
X55662Y-38915D03*
G54D18*
X56330Y-37792D03*
X57080Y-37792D03*
G54D25*
X21790Y-13755D03*
X21790Y-14505D03*
X21080Y-14505D03*
X21080Y-13755D03*
X27510Y-13025D03*
X27510Y-13775D03*
G54D18*
X35526Y-02573D03*
X34776Y-02573D03*
G54D25*
X16245Y-11086D03*
X16245Y-10336D03*
G54D18*
X16455Y-11940D03*
X17205Y-11940D03*
G54D25*
X28940Y-17273D03*
X28940Y-16523D03*
G54D35*
X63988Y-02915D03*
X63988Y-03171D03*
X63988Y-02659D03*
X63122Y-03171D03*
X63122Y-02659D03*
G54D36*
X24493Y-09333D03*
X24493Y-10121D03*
G54D37*
X08815Y-08520D03*
X09565Y-08520D03*
X08815Y-07520D03*
X09190Y-08520D03*
X09565Y-07520D03*
G54D38*
X21390Y-15030D03*
X21765Y-15030D03*
X22140Y-15030D03*
X22140Y-16030D03*
X21765Y-16030D03*
X21390Y-16030D03*
G54D39*
X25590Y-10920D03*
X25590Y-11620D03*
X24790Y-11270D03*
G54D40*
X27543Y-16721D03*
X27543Y-16209D03*
X28291Y-16465D03*
G54D41*
X66584Y-06273D03*
X66584Y-06076D03*
X66584Y-05879D03*
X66584Y-05682D03*
X66584Y-05485D03*
X66584Y-05288D03*
X66584Y-05082D03*
X66584Y-04885D03*
X66584Y-04688D03*
X66584Y-04491D03*
X66584Y-04294D03*
X66584Y-04107D03*
G54D42*
X66358Y-03881D03*
X66161Y-03881D03*
X65964Y-03881D03*
X65767Y-03881D03*
X65570Y-03881D03*
X65373Y-03881D03*
X65177Y-03881D03*
X64980Y-03881D03*
X64783Y-03881D03*
X64586Y-03881D03*
X64389Y-03881D03*
X64192Y-03881D03*
G54D41*
X63966Y-04107D03*
X63966Y-04304D03*
X63966Y-04501D03*
X63966Y-04698D03*
X63966Y-04895D03*
X63966Y-05092D03*
X63966Y-05288D03*
X63966Y-05485D03*
X63966Y-05682D03*
X63966Y-05879D03*
X63966Y-06076D03*
X63966Y-06273D03*
G54D42*
X64192Y-06499D03*
X64389Y-06499D03*
X64586Y-06499D03*
X64783Y-06499D03*
X64980Y-06499D03*
X65177Y-06499D03*
X65374Y-06499D03*
X65570Y-06499D03*
X65767Y-06499D03*
X65964Y-06499D03*
X66161Y-06499D03*
X66358Y-06499D03*
G54D43*
X65275Y-05190D03*
G54D44*
X03115Y-07763D03*
G54D45*
X02721Y-06759D03*
X03509Y-06759D03*
G54D44*
X06290Y-07763D03*
G54D45*
X05896Y-06759D03*
X06684Y-06759D03*
G54D46*
X66993Y-08105D03*
X65537Y-08105D03*
G54D47*
X32766Y-00707D03*
X34931Y-00707D03*
X33455Y-00707D03*
G54D48*
X34348Y-01786D03*
X34098Y-01786D03*
X33848Y-01786D03*
X33598Y-01786D03*
X33348Y-01786D03*
G54D47*
X34242Y-00707D03*
G54D49*
X50107Y-27146D03*
X50304Y-27146D03*
X50501Y-27146D03*
X50697Y-27146D03*
X50894Y-27146D03*
X51091Y-27146D03*
X51288Y-27146D03*
X51485Y-27146D03*
X51682Y-27146D03*
X51879Y-27146D03*
X52075Y-27146D03*
X52272Y-27146D03*
G54D50*
X52567Y-26852D03*
X52567Y-26655D03*
X52567Y-26458D03*
X52567Y-26262D03*
X52567Y-26065D03*
X52567Y-25868D03*
X52567Y-25671D03*
X52567Y-25474D03*
X52567Y-25277D03*
X52567Y-25080D03*
X52567Y-24884D03*
X52567Y-24687D03*
G54D49*
X52273Y-24392D03*
X52076Y-24392D03*
X51879Y-24392D03*
X51682Y-24392D03*
X51485Y-24392D03*
X51288Y-24392D03*
X51091Y-24392D03*
X50895Y-24392D03*
X50698Y-24392D03*
X50501Y-24392D03*
X50304Y-24392D03*
X50107Y-24392D03*
G54D50*
X49811Y-24687D03*
X49811Y-24884D03*
X49811Y-25080D03*
X49811Y-25277D03*
X49811Y-25474D03*
X49811Y-25671D03*
X49811Y-25868D03*
X49811Y-26065D03*
X49811Y-26262D03*
X49811Y-26458D03*
X49811Y-26655D03*
X49811Y-26852D03*
G54D11*
X64667Y-07300D03*
X64313Y-07300D03*
G54D51*
X48407Y-03041D03*
X55493Y-03040D03*
G54D44*
X35100Y-11488D03*
G54D45*
X34706Y-10484D03*
X35494Y-10484D03*
G54D39*
X47184Y-39927D03*
X47184Y-39227D03*
X47984Y-39577D03*
G54D12*
X48371Y-38612D03*
X48371Y-38258D03*
G54D52*
X47466Y-38632D03*
X47033Y-38435D03*
X47466Y-38238D03*
G54D53*
X56287Y-38536D03*
X56287Y-38694D03*
X56287Y-38379D03*
X56445Y-38379D03*
X56445Y-38536D03*
X56445Y-38694D03*
X56602Y-38379D03*
X56602Y-38536D03*
X56602Y-38694D03*
X56602Y-38851D03*
X56445Y-38851D03*
X56287Y-38851D03*
M02*
