G04 (created by PCBNEW-RS274X (2012-jan-04)-stable) date Tue 19 Feb 2013 11:54:22 AM EST*
G01*
G70*
G90*
%MOIN*%
G04 Gerber Fmt 3.4, Leading zero omitted, Abs format*
%FSLAX34Y34*%
G04 APERTURE LIST*
%ADD10C,0.006000*%
%ADD11C,0.160000*%
%ADD12R,0.075000X0.075000*%
%ADD13C,0.075000*%
%ADD14C,0.112900*%
%ADD15C,0.071200*%
%ADD16C,0.080000*%
%ADD17R,0.080000X0.080000*%
%ADD18C,0.098700*%
%ADD19C,0.067200*%
%ADD20O,0.083000X0.146000*%
%ADD21O,0.146000X0.083000*%
G04 APERTURE END LIST*
G54D10*
%LPC*%
G54D11*
X35190Y-39770D03*
G54D12*
X36690Y-37770D03*
G54D13*
X35690Y-37770D03*
X36690Y-36770D03*
X35690Y-36770D03*
X36690Y-35770D03*
X35690Y-35770D03*
X36690Y-34770D03*
X35690Y-34770D03*
X36690Y-33770D03*
X35690Y-33770D03*
X36690Y-32770D03*
X35690Y-32770D03*
X36690Y-31770D03*
X35690Y-31770D03*
X36690Y-30770D03*
X35690Y-30770D03*
X36690Y-29770D03*
X35690Y-29770D03*
X36690Y-28770D03*
X35690Y-28770D03*
X36690Y-27770D03*
X35690Y-27770D03*
X36690Y-26770D03*
X35690Y-26770D03*
X36690Y-25770D03*
X35690Y-25770D03*
X36690Y-24770D03*
X35690Y-24770D03*
X36690Y-23770D03*
X35690Y-23770D03*
X36690Y-22770D03*
X35690Y-22770D03*
X36690Y-21770D03*
X35690Y-21770D03*
X36690Y-20770D03*
X35690Y-20770D03*
X36690Y-19770D03*
X35690Y-19770D03*
X36690Y-18770D03*
X35690Y-18770D03*
G54D11*
X35190Y-16770D03*
X01288Y-39805D03*
X01288Y-16770D03*
G54D14*
X21962Y-02450D03*
X17238Y-02450D03*
G54D15*
X20600Y-03434D03*
X20206Y-04419D03*
X19797Y-03434D03*
X19403Y-04419D03*
X18994Y-03434D03*
X18600Y-04419D03*
G54D11*
X01690Y-37270D03*
X72690Y-09270D03*
X74690Y-39270D03*
X09690Y-02270D03*
G54D16*
X16190Y-34770D03*
X16190Y-35770D03*
X17190Y-35770D03*
X17190Y-34770D03*
X19190Y-34770D03*
X19190Y-35770D03*
X18190Y-35770D03*
X18190Y-34770D03*
X18190Y-32770D03*
X18190Y-33770D03*
X19190Y-33770D03*
X19190Y-32770D03*
X17190Y-32770D03*
X17190Y-33770D03*
X16190Y-33770D03*
X16190Y-32770D03*
G54D17*
X68155Y-01325D03*
G54D18*
X75425Y-04515D03*
X76425Y-05515D03*
X74425Y-05515D03*
X74425Y-03515D03*
X76425Y-03515D03*
G54D13*
X40190Y-39770D03*
X40190Y-38770D03*
X40190Y-37770D03*
X40190Y-36770D03*
X40190Y-35770D03*
X40190Y-34770D03*
X40190Y-33770D03*
X40190Y-32770D03*
X40190Y-31770D03*
X40190Y-30770D03*
X40190Y-29770D03*
X40190Y-28770D03*
X40190Y-27770D03*
X40190Y-26770D03*
X40190Y-25770D03*
X40190Y-24770D03*
X40190Y-23770D03*
X40190Y-22770D03*
X40190Y-21770D03*
X40190Y-20770D03*
X40190Y-19770D03*
X40190Y-18770D03*
X40190Y-17770D03*
X40190Y-16770D03*
X40190Y-15770D03*
X62190Y-39770D03*
X62190Y-38770D03*
X62190Y-37770D03*
X62190Y-36770D03*
X62190Y-35770D03*
X62190Y-34770D03*
X62190Y-33770D03*
X62190Y-32770D03*
X62190Y-31770D03*
X62190Y-30770D03*
X62190Y-29770D03*
X62190Y-28770D03*
X62190Y-27770D03*
X62190Y-26770D03*
X62190Y-25770D03*
X62190Y-24770D03*
X62190Y-23770D03*
X62190Y-22770D03*
X62190Y-21770D03*
X62190Y-20770D03*
X62190Y-19770D03*
X62190Y-18770D03*
X62190Y-17770D03*
X62190Y-16770D03*
X62190Y-15770D03*
X61190Y-15770D03*
X61190Y-16770D03*
X61190Y-17770D03*
X61190Y-18770D03*
X61190Y-19770D03*
X61190Y-20770D03*
X61190Y-21770D03*
X61190Y-22770D03*
X61190Y-23770D03*
X61190Y-24770D03*
X61190Y-25770D03*
X61190Y-26770D03*
X61190Y-27770D03*
X61190Y-28770D03*
X61190Y-29770D03*
X61190Y-30770D03*
X61190Y-31770D03*
X61190Y-32770D03*
X61190Y-33770D03*
X61190Y-34770D03*
X61190Y-35770D03*
X61190Y-36770D03*
X61190Y-37770D03*
X61190Y-38770D03*
X61190Y-39770D03*
X41190Y-15770D03*
X41190Y-16770D03*
X41190Y-17770D03*
X41190Y-18770D03*
X41190Y-19770D03*
X41190Y-20770D03*
X41190Y-21770D03*
X41190Y-22770D03*
X41190Y-23770D03*
X41190Y-24770D03*
X41190Y-25770D03*
X41190Y-26770D03*
X41190Y-27770D03*
X41190Y-28770D03*
X41190Y-29770D03*
X41190Y-30770D03*
X41190Y-31770D03*
X41190Y-32770D03*
X41190Y-33770D03*
X41190Y-34770D03*
X41190Y-35770D03*
X41190Y-36770D03*
X41190Y-37770D03*
X41190Y-38770D03*
X41190Y-39770D03*
G54D17*
X72720Y-14940D03*
G54D16*
X71720Y-14940D03*
X70720Y-14940D03*
X69720Y-14940D03*
X68720Y-14940D03*
X67720Y-14940D03*
G54D17*
X75733Y-06892D03*
G54D16*
X75733Y-07892D03*
X75733Y-08892D03*
X75733Y-09892D03*
X75733Y-10892D03*
X75733Y-11892D03*
G54D12*
X36540Y-13455D03*
G54D13*
X36540Y-12455D03*
G54D19*
X04691Y-04010D03*
X06659Y-02042D03*
X06659Y-01057D03*
X02721Y-01057D03*
G54D20*
X02721Y-04010D03*
X05674Y-04010D03*
X06659Y-04010D03*
X03706Y-04010D03*
G54D21*
X04690Y-02042D03*
G54D19*
X02721Y-02042D03*
G54D16*
X20190Y-34770D03*
X20190Y-35770D03*
X21190Y-35770D03*
X21190Y-34770D03*
X23190Y-34770D03*
X23190Y-35770D03*
X22190Y-35770D03*
X22190Y-34770D03*
X22190Y-32770D03*
X22190Y-33770D03*
X23190Y-33770D03*
X23190Y-32770D03*
X21190Y-32770D03*
X21190Y-33770D03*
X20190Y-33770D03*
X20190Y-32770D03*
X20190Y-30770D03*
X20190Y-31770D03*
X21190Y-31770D03*
X21190Y-30770D03*
X23190Y-30770D03*
X23190Y-31770D03*
X22190Y-31770D03*
X22190Y-30770D03*
X22190Y-28770D03*
X22190Y-29770D03*
X23190Y-29770D03*
X23190Y-28770D03*
X21190Y-28770D03*
X21190Y-29770D03*
X20190Y-29770D03*
X20190Y-28770D03*
X16190Y-30770D03*
X16190Y-31770D03*
X17190Y-31770D03*
X17190Y-30770D03*
X19190Y-30770D03*
X19190Y-31770D03*
X18190Y-31770D03*
X18190Y-30770D03*
X18190Y-28770D03*
X18190Y-29770D03*
X19190Y-29770D03*
X19190Y-28770D03*
X17190Y-28770D03*
X17190Y-29770D03*
X16190Y-29770D03*
X16190Y-28770D03*
X24190Y-30770D03*
X24190Y-31770D03*
X25190Y-31770D03*
X25190Y-30770D03*
X27190Y-30770D03*
X27190Y-31770D03*
X26190Y-31770D03*
X26190Y-30770D03*
X26190Y-28770D03*
X26190Y-29770D03*
X27190Y-29770D03*
X27190Y-28770D03*
X25190Y-28770D03*
X25190Y-29770D03*
X24190Y-29770D03*
X24190Y-28770D03*
X28190Y-30770D03*
X28190Y-31770D03*
X29190Y-31770D03*
X29190Y-30770D03*
X31190Y-30770D03*
X31190Y-31770D03*
X30190Y-31770D03*
X30190Y-30770D03*
X30190Y-28770D03*
X30190Y-29770D03*
X31190Y-29770D03*
X31190Y-28770D03*
X29190Y-28770D03*
X29190Y-29770D03*
X28190Y-29770D03*
X28190Y-28770D03*
X28190Y-34770D03*
X28190Y-35770D03*
X29190Y-35770D03*
X29190Y-34770D03*
X31190Y-34770D03*
X31190Y-35770D03*
X30190Y-35770D03*
X30190Y-34770D03*
X30190Y-32770D03*
X30190Y-33770D03*
X31190Y-33770D03*
X31190Y-32770D03*
X29190Y-32770D03*
X29190Y-33770D03*
X28190Y-33770D03*
X28190Y-32770D03*
X24190Y-34770D03*
X24190Y-35770D03*
X25190Y-35770D03*
X25190Y-34770D03*
X27190Y-34770D03*
X27190Y-35770D03*
X26190Y-35770D03*
X26190Y-34770D03*
X26190Y-32770D03*
X26190Y-33770D03*
X27190Y-33770D03*
X27190Y-32770D03*
X25190Y-32770D03*
X25190Y-33770D03*
X24190Y-33770D03*
X24190Y-32770D03*
X24190Y-26770D03*
X24190Y-27770D03*
X25190Y-27770D03*
X25190Y-26770D03*
X27190Y-26770D03*
X27190Y-27770D03*
X26190Y-27770D03*
X26190Y-26770D03*
X26190Y-24770D03*
X26190Y-25770D03*
X27190Y-25770D03*
X27190Y-24770D03*
X25190Y-24770D03*
X25190Y-25770D03*
X24190Y-25770D03*
X24190Y-24770D03*
X28190Y-26770D03*
X28190Y-27770D03*
X29190Y-27770D03*
X29190Y-26770D03*
X31190Y-26770D03*
X31190Y-27770D03*
X30190Y-27770D03*
X30190Y-26770D03*
X30190Y-24770D03*
X30190Y-25770D03*
X31190Y-25770D03*
X31190Y-24770D03*
X29190Y-24770D03*
X29190Y-25770D03*
X28190Y-25770D03*
X28190Y-24770D03*
X28190Y-22770D03*
X28190Y-23770D03*
X29190Y-23770D03*
X29190Y-22770D03*
X31190Y-22770D03*
X31190Y-23770D03*
X30190Y-23770D03*
X30190Y-22770D03*
X30190Y-20770D03*
X30190Y-21770D03*
X31190Y-21770D03*
X31190Y-20770D03*
X29190Y-20770D03*
X29190Y-21770D03*
X28190Y-21770D03*
X28190Y-20770D03*
X24190Y-22770D03*
X24190Y-23770D03*
X25190Y-23770D03*
X25190Y-22770D03*
X27190Y-22770D03*
X27190Y-23770D03*
X26190Y-23770D03*
X26190Y-22770D03*
X26190Y-20770D03*
X26190Y-21770D03*
X27190Y-21770D03*
X27190Y-20770D03*
X25190Y-20770D03*
X25190Y-21770D03*
X24190Y-21770D03*
X24190Y-20770D03*
X20190Y-26770D03*
X20190Y-27770D03*
X21190Y-27770D03*
X21190Y-26770D03*
X23190Y-26770D03*
X23190Y-27770D03*
X22190Y-27770D03*
X22190Y-26770D03*
X22190Y-24770D03*
X22190Y-25770D03*
X23190Y-25770D03*
X23190Y-24770D03*
X21190Y-24770D03*
X21190Y-25770D03*
X20190Y-25770D03*
X20190Y-24770D03*
X16190Y-26770D03*
X16190Y-27770D03*
X17190Y-27770D03*
X17190Y-26770D03*
X19190Y-26770D03*
X19190Y-27770D03*
X18190Y-27770D03*
X18190Y-26770D03*
X18190Y-24770D03*
X18190Y-25770D03*
X19190Y-25770D03*
X19190Y-24770D03*
X17190Y-24770D03*
X17190Y-25770D03*
X16190Y-25770D03*
X16190Y-24770D03*
X16190Y-22770D03*
X16190Y-23770D03*
X17190Y-23770D03*
X17190Y-22770D03*
X19190Y-22770D03*
X19190Y-23770D03*
X18190Y-23770D03*
X18190Y-22770D03*
X18190Y-20770D03*
X18190Y-21770D03*
X19190Y-21770D03*
X19190Y-20770D03*
X17190Y-20770D03*
X17190Y-21770D03*
X16190Y-21770D03*
X16190Y-20770D03*
X04190Y-34770D03*
X04190Y-35770D03*
X05190Y-35770D03*
X05190Y-34770D03*
X07190Y-34770D03*
X07190Y-35770D03*
X06190Y-35770D03*
X06190Y-34770D03*
X06190Y-32770D03*
X06190Y-33770D03*
X07190Y-33770D03*
X07190Y-32770D03*
X05190Y-32770D03*
X05190Y-33770D03*
X04190Y-33770D03*
X04190Y-32770D03*
X12190Y-34770D03*
X12190Y-35770D03*
X13190Y-35770D03*
X13190Y-34770D03*
X15190Y-34770D03*
X15190Y-35770D03*
X14190Y-35770D03*
X14190Y-34770D03*
X14190Y-32770D03*
X14190Y-33770D03*
X15190Y-33770D03*
X15190Y-32770D03*
X13190Y-32770D03*
X13190Y-33770D03*
X12190Y-33770D03*
X12190Y-32770D03*
X12190Y-30770D03*
X12190Y-31770D03*
X13190Y-31770D03*
X13190Y-30770D03*
X15190Y-30770D03*
X15190Y-31770D03*
X14190Y-31770D03*
X14190Y-30770D03*
X14190Y-28770D03*
X14190Y-29770D03*
X15190Y-29770D03*
X15190Y-28770D03*
X13190Y-28770D03*
X13190Y-29770D03*
X12190Y-29770D03*
X12190Y-28770D03*
X12190Y-22770D03*
X12190Y-23770D03*
X13190Y-23770D03*
X13190Y-22770D03*
X15190Y-22770D03*
X15190Y-23770D03*
X14190Y-23770D03*
X14190Y-22770D03*
X14190Y-20770D03*
X14190Y-21770D03*
X15190Y-21770D03*
X15190Y-20770D03*
X13190Y-20770D03*
X13190Y-21770D03*
X12190Y-21770D03*
X12190Y-20770D03*
X12190Y-26770D03*
X12190Y-27770D03*
X13190Y-27770D03*
X13190Y-26770D03*
X15190Y-26770D03*
X15190Y-27770D03*
X14190Y-27770D03*
X14190Y-26770D03*
X14190Y-24770D03*
X14190Y-25770D03*
X15190Y-25770D03*
X15190Y-24770D03*
X13190Y-24770D03*
X13190Y-25770D03*
X12190Y-25770D03*
X12190Y-24770D03*
X04190Y-26770D03*
X04190Y-27770D03*
X05190Y-27770D03*
X05190Y-26770D03*
X07190Y-26770D03*
X07190Y-27770D03*
X06190Y-27770D03*
X06190Y-26770D03*
X06190Y-24770D03*
X06190Y-25770D03*
X07190Y-25770D03*
X07190Y-24770D03*
X05190Y-24770D03*
X05190Y-25770D03*
X04190Y-25770D03*
X04190Y-24770D03*
X04190Y-22770D03*
X04190Y-23770D03*
X05190Y-23770D03*
X05190Y-22770D03*
X07190Y-22770D03*
X07190Y-23770D03*
X06190Y-23770D03*
X06190Y-22770D03*
X06190Y-20770D03*
X06190Y-21770D03*
X07190Y-21770D03*
X07190Y-20770D03*
X05190Y-20770D03*
X05190Y-21770D03*
X04190Y-21770D03*
X04190Y-20770D03*
X04190Y-30770D03*
X04190Y-31770D03*
X05190Y-31770D03*
X05190Y-30770D03*
X07190Y-30770D03*
X07190Y-31770D03*
X06190Y-31770D03*
X06190Y-30770D03*
X06190Y-28770D03*
X06190Y-29770D03*
X07190Y-29770D03*
X07190Y-28770D03*
X05190Y-28770D03*
X05190Y-29770D03*
X04190Y-29770D03*
X04190Y-28770D03*
X04190Y-38770D03*
X04190Y-39770D03*
X05190Y-39770D03*
X05190Y-38770D03*
X07190Y-38770D03*
X07190Y-39770D03*
X06190Y-39770D03*
X06190Y-38770D03*
X06190Y-36770D03*
X06190Y-37770D03*
X07190Y-37770D03*
X07190Y-36770D03*
X05190Y-36770D03*
X05190Y-37770D03*
X04190Y-37770D03*
X04190Y-36770D03*
X12190Y-38770D03*
X12190Y-39770D03*
X13190Y-39770D03*
X13190Y-38770D03*
X15190Y-38770D03*
X15190Y-39770D03*
X14190Y-39770D03*
X14190Y-38770D03*
X14190Y-36770D03*
X14190Y-37770D03*
X15190Y-37770D03*
X15190Y-36770D03*
X13190Y-36770D03*
X13190Y-37770D03*
X12190Y-37770D03*
X12190Y-36770D03*
X16190Y-38770D03*
X16190Y-39770D03*
X17190Y-39770D03*
X17190Y-38770D03*
X19190Y-38770D03*
X19190Y-39770D03*
X18190Y-39770D03*
X18190Y-38770D03*
X18190Y-36770D03*
X18190Y-37770D03*
X19190Y-37770D03*
X19190Y-36770D03*
X17190Y-36770D03*
X17190Y-37770D03*
X16190Y-37770D03*
X16190Y-36770D03*
X20190Y-38770D03*
X20190Y-39770D03*
X21190Y-39770D03*
X21190Y-38770D03*
X23190Y-38770D03*
X23190Y-39770D03*
X22190Y-39770D03*
X22190Y-38770D03*
X22190Y-36770D03*
X22190Y-37770D03*
X23190Y-37770D03*
X23190Y-36770D03*
X21190Y-36770D03*
X21190Y-37770D03*
X20190Y-37770D03*
X20190Y-36770D03*
X24190Y-38770D03*
X24190Y-39770D03*
X25190Y-39770D03*
X25190Y-38770D03*
X27190Y-38770D03*
X27190Y-39770D03*
X26190Y-39770D03*
X26190Y-38770D03*
X26190Y-36770D03*
X26190Y-37770D03*
X27190Y-37770D03*
X27190Y-36770D03*
X25190Y-36770D03*
X25190Y-37770D03*
X24190Y-37770D03*
X24190Y-36770D03*
X28190Y-38770D03*
X28190Y-39770D03*
X29190Y-39770D03*
X29190Y-38770D03*
X31190Y-38770D03*
X31190Y-39770D03*
X30190Y-39770D03*
X30190Y-38770D03*
X30190Y-36770D03*
X30190Y-37770D03*
X31190Y-37770D03*
X31190Y-36770D03*
X29190Y-36770D03*
X29190Y-37770D03*
X28190Y-37770D03*
X28190Y-36770D03*
X08190Y-38770D03*
X08190Y-39770D03*
X09190Y-39770D03*
X09190Y-38770D03*
X11190Y-38770D03*
X11190Y-39770D03*
X10190Y-39770D03*
X10190Y-38770D03*
X10190Y-36770D03*
X10190Y-37770D03*
X11190Y-37770D03*
X11190Y-36770D03*
X09190Y-36770D03*
X09190Y-37770D03*
X08190Y-37770D03*
X08190Y-36770D03*
X08190Y-22770D03*
X08190Y-23770D03*
X09190Y-23770D03*
X09190Y-22770D03*
X11190Y-22770D03*
X11190Y-23770D03*
X10190Y-23770D03*
X10190Y-22770D03*
X10190Y-20770D03*
X10190Y-21770D03*
X11190Y-21770D03*
X11190Y-20770D03*
X09190Y-20770D03*
X09190Y-21770D03*
X08190Y-21770D03*
X08190Y-20770D03*
X08190Y-26770D03*
X08190Y-27770D03*
X09190Y-27770D03*
X09190Y-26770D03*
X11190Y-26770D03*
X11190Y-27770D03*
X10190Y-27770D03*
X10190Y-26770D03*
X10190Y-24770D03*
X10190Y-25770D03*
X11190Y-25770D03*
X11190Y-24770D03*
X09190Y-24770D03*
X09190Y-25770D03*
X08190Y-25770D03*
X08190Y-24770D03*
X08190Y-34770D03*
X08190Y-35770D03*
X09190Y-35770D03*
X09190Y-34770D03*
X11190Y-34770D03*
X11190Y-35770D03*
X10190Y-35770D03*
X10190Y-34770D03*
X10190Y-32770D03*
X10190Y-33770D03*
X11190Y-33770D03*
X11190Y-32770D03*
X09190Y-32770D03*
X09190Y-33770D03*
X08190Y-33770D03*
X08190Y-32770D03*
X20190Y-22770D03*
X20190Y-23770D03*
X21190Y-23770D03*
X21190Y-22770D03*
X23190Y-22770D03*
X23190Y-23770D03*
X22190Y-23770D03*
X22190Y-22770D03*
X22190Y-20770D03*
X22190Y-21770D03*
X23190Y-21770D03*
X23190Y-20770D03*
X21190Y-20770D03*
X21190Y-21770D03*
X20190Y-21770D03*
X20190Y-20770D03*
X08190Y-30770D03*
X08190Y-31770D03*
X09190Y-31770D03*
X09190Y-30770D03*
X11190Y-30770D03*
X11190Y-31770D03*
X10190Y-31770D03*
X10190Y-30770D03*
X10190Y-28770D03*
X10190Y-29770D03*
X11190Y-29770D03*
X11190Y-28770D03*
X09190Y-28770D03*
X09190Y-29770D03*
X08190Y-29770D03*
X08190Y-28770D03*
G54D12*
X36812Y-14656D03*
G54D13*
X35812Y-14656D03*
X34812Y-14656D03*
M02*
