M48
;DRILL file {Pcbnew (2012-apr-16-27)-stable} date Tue 12 Feb 2013 09:42:47 AM EST
;FORMAT={-:-/ absolute / inch / decimal}
FMAT,2
INCH,TZ
T1C0.015
T2C0.018
T3C0.020
T4C0.022
T5C0.032
T6C0.032
T7C0.039
T8C0.040
T9C0.059
%
G90
G05
M72
T1
X0.069Y-0.678
X0.161Y-0.568
X0.212Y-0.897
X0.238Y-0.807
X0.255Y-1.213
X0.270Y-1.021
X0.374Y-0.924
X0.382Y-0.736
X0.384Y-0.546
X0.412Y-1.216
X0.413Y-0.773
X0.425Y-0.957
X0.481Y-0.925
X0.517Y-0.745
X0.563Y-0.558
X0.659Y-1.221
X0.723Y-1.001
X0.752Y-0.556
X0.820Y-0.704
X0.825Y-0.840
X0.869Y-1.221
X1.012Y-0.851
X1.040Y-0.614
X1.431Y-1.239
X1.460Y-1.758
X1.497Y-1.752
X1.499Y-1.151
X1.534Y-1.194
X1.574Y-1.252
X1.618Y-1.346
X1.619Y-1.277
X1.630Y-1.665
X1.665Y-0.442
X1.689Y-1.055
X1.689Y-1.096
X1.694Y-1.435
X1.747Y-1.055
X1.747Y-1.096
X1.782Y-1.363
X1.816Y-1.059
X1.865Y-1.288
X1.893Y-1.718
X1.969Y-1.240
X2.001Y-1.142
X2.016Y-1.319
X2.037Y-0.760
X2.045Y-1.450
X2.115Y-1.024
X2.122Y-1.755
X2.146Y-1.325
X2.163Y-1.663
X2.165Y-0.816
X2.176Y-1.135
X2.217Y-0.481
X2.262Y-1.608
X2.338Y-1.751
X2.516Y-1.213
X2.634Y-1.162
X2.726Y-1.256
X2.752Y-1.088
X2.843Y-1.585
X2.858Y-1.282
X2.880Y-1.315
X2.891Y-1.275
X2.922Y-1.268
X2.970Y-1.328
X2.970Y-1.358
X2.999Y-1.358
X3.000Y-1.329
X3.010Y-1.167
X3.018Y-0.750
X3.060Y-0.523
X3.062Y-1.229
X3.089Y-1.842
X3.110Y-1.167
X3.122Y-0.682
X3.124Y-0.385
X3.193Y-0.902
X3.195Y-1.280
X3.195Y-1.179
X3.205Y-0.418
X3.229Y-0.859
X3.242Y-2.413
X3.254Y-0.323
X3.258Y-0.588
X3.261Y-1.169
X3.267Y-0.717
X3.275Y-1.288
X3.283Y-1.317
X3.286Y-1.434
X3.330Y-2.302
X3.342Y-1.613
X3.347Y-1.366
X3.400Y-0.619
X3.422Y-2.925
X3.422Y-3.028
X3.430Y-2.177
X3.438Y-1.918
X3.441Y-2.792
X3.451Y-0.446
X3.455Y-3.160
X3.477Y-2.288
X3.487Y-0.336
X3.489Y-2.949
X3.489Y-3.298
X3.528Y-2.831
X3.556Y-1.796
X3.569Y-3.077
X3.569Y-3.177
X3.597Y-0.284
X3.618Y-0.478
X3.619Y-2.429
X3.627Y-1.027
X3.669Y-3.177
X3.682Y-0.748
X3.745Y-3.126
X3.780Y-2.170
X3.786Y-3.042
X3.814Y-2.223
X3.817Y-3.213
X3.827Y-2.349
X3.853Y-3.244
X3.888Y-3.288
X3.900Y-3.339
X3.906Y-0.898
X3.910Y-0.945
X3.910Y-3.496
X3.949Y-2.406
X4.019Y-2.777
X4.019Y-2.877
X4.019Y-2.977
X4.119Y-2.877
X4.173Y-1.779
X4.173Y-1.779
X4.189Y-3.591
X4.231Y-1.745
X4.237Y-2.289
X4.254Y-1.395
X4.279Y-2.270
X4.308Y-2.467
X4.308Y-2.642
X4.371Y-0.697
X4.374Y-1.036
X4.375Y-3.910
X4.436Y-2.337
X4.453Y-0.276
X4.512Y-2.567
X4.536Y-0.784
X4.536Y-0.827
X4.536Y-1.894
X4.619Y-3.819
X4.628Y-2.708
X4.630Y-1.177
X4.680Y-2.004
X4.684Y-3.887
X4.700Y-1.157
X4.701Y-1.079
X4.701Y-3.274
X4.717Y-3.591
X4.739Y-3.235
X4.748Y-3.772
X4.754Y-2.311
X4.756Y-3.611
X4.780Y-3.244
X4.781Y-1.949
X4.792Y-2.360
X4.796Y-2.866
X4.816Y-2.437
X4.816Y-2.508
X4.816Y-2.675
X4.845Y-2.536
X4.853Y-3.530
X4.873Y-3.451
X4.878Y-1.658
X4.908Y-3.521
X4.933Y-2.740
X4.944Y-3.873
X4.989Y-3.520
X4.993Y-2.784
X5.012Y-2.162
X5.016Y-1.677
X5.020Y-2.882
X5.036Y-3.575
X5.056Y-3.032
X5.078Y-2.583
X5.128Y-2.494
X5.134Y-2.289
X5.134Y-3.626
X5.138Y-3.697
X5.154Y-3.429
X5.154Y-3.878
X5.164Y-3.319
X5.168Y-2.254
X5.175Y-2.642
X5.178Y-2.150
X5.183Y-0.496
X5.184Y-3.122
X5.190Y-2.095
X5.226Y-3.834
X5.231Y-2.315
X5.233Y-2.044
X5.239Y-1.929
X5.239Y-2.957
X5.243Y-2.878
X5.251Y-2.390
X5.288Y-3.761
X5.308Y-0.398
X5.312Y-1.981
X5.343Y-2.016
X5.347Y-2.059
X5.351Y-0.362
X5.351Y-3.830
X5.388Y-3.753
X5.400Y-3.836
X5.404Y-3.481
X5.407Y-2.762
X5.425Y-1.673
X5.472Y-1.808
X5.487Y-1.966
X5.512Y-3.819
X5.532Y-3.571
X5.575Y-3.973
X5.600Y-2.278
X5.606Y-3.826
X5.623Y-1.071
X5.693Y-4.024
X5.715Y-2.803
X5.720Y-3.969
X5.727Y-3.899
X5.789Y-2.364
X5.800Y-1.726
X5.801Y-3.866
X5.839Y-2.154
X5.843Y-2.252
X5.843Y-2.807
X5.851Y-2.929
X5.871Y-0.882
X5.886Y-0.331
X5.890Y-2.815
X5.911Y-3.844
X5.922Y-2.764
X5.983Y-2.362
X5.985Y-2.587
X6.014Y-3.875
X6.018Y-2.624
X6.023Y-3.061
X6.023Y-3.125
X6.054Y-2.731
X6.056Y-2.658
X6.067Y-1.855
X6.111Y-0.618
X6.134Y-0.166
X6.155Y-0.271
X6.171Y-2.512
X6.213Y-0.450
X6.256Y-0.693
X6.262Y-0.553
X6.269Y-0.205
X6.271Y-0.593
X6.272Y-1.051
X6.276Y-2.618
X6.292Y-2.437
X6.297Y-1.186
X6.308Y-2.536
X6.319Y-1.347
X6.320Y-0.176
X6.335Y-0.898
X6.341Y-4.034
X6.349Y-0.550
X6.355Y-2.760
X6.363Y-0.410
X6.368Y-0.205
X6.397Y-2.500
X6.429Y-0.187
X6.436Y-0.307
X6.457Y-0.338
X6.459Y-0.447
X6.459Y-0.587
X6.488Y-0.686
X6.520Y-0.353
X6.528Y-0.519
X6.538Y-1.367
X6.545Y-0.332
X6.565Y-0.693
X6.573Y-2.149
X6.587Y-2.389
X6.597Y-4.059
X6.599Y-0.447
X6.599Y-0.587
X6.610Y-2.647
X6.610Y-2.836
X6.616Y-3.116
X6.620Y-0.346
X6.629Y-3.468
X6.632Y-3.604
X6.654Y-0.355
X6.666Y-0.669
X6.672Y-0.128
X6.683Y-0.195
X6.757Y-0.405
X6.821Y-0.300
X6.832Y-0.917
X6.849Y-0.845
X6.857Y-3.351
X6.861Y-3.028
X6.871Y-2.642
X6.877Y-0.253
X6.878Y-1.691
X6.882Y-1.898
X6.906Y-2.425
X6.924Y-0.409
X6.936Y-0.509
X6.936Y-0.548
X6.950Y-0.139
X6.955Y-0.489
X6.955Y-0.529
X6.955Y-0.568
X6.975Y-0.509
X6.975Y-0.548
X6.979Y-0.408
X6.985Y-0.324
X7.009Y-0.423
X7.029Y-0.599
X7.039Y-0.277
X7.051Y-1.615
X7.080Y-0.494
X7.099Y-0.277
X7.100Y-0.599
X7.104Y-0.519
X7.139Y-0.387
X7.139Y-0.447
X7.139Y-0.507
X7.149Y-0.277
X7.149Y-0.307
X7.149Y-0.347
X7.159Y-0.599
X7.189Y-0.547
X7.219Y-0.277
X7.219Y-0.302
X7.219Y-0.327
X7.229Y-0.599
X7.239Y-0.537
X7.249Y-0.337
X7.266Y-1.646
X7.279Y-0.497
X7.289Y-0.557
X7.294Y-0.277
X7.319Y-0.457
X7.329Y-0.517
X7.354Y-2.002
X7.354Y-2.050
X7.359Y-0.427
X7.369Y-0.277
X7.369Y-0.477
X7.419Y-0.427
X7.419Y-0.477
X7.444Y-0.277
X7.479Y-0.427
X7.489Y-0.477
X7.517Y-2.264
X7.519Y-0.277
X7.519Y-0.367
X7.519Y-0.547
X7.542Y-3.494
X7.547Y-2.784
X7.558Y-1.816
X7.559Y-0.367
X7.569Y-0.547
X7.594Y-0.277
X7.647Y-1.293
X7.649Y-0.427
X7.649Y-0.477
X7.659Y-0.277
T2
X0.244Y-2.921
X0.248Y-2.176
X0.262Y-3.947
X0.263Y-2.571
X0.268Y-1.396
X0.269Y-3.569
X0.276Y-3.254
X0.288Y-1.761
X0.325Y-4.062
X0.553Y-1.886
X0.612Y-4.066
X0.908Y-1.441
X1.105Y-4.080
X1.193Y-1.906
X1.957Y-4.077
X2.449Y-0.583
X2.612Y-4.073
X3.105Y-4.066
X3.201Y-2.456
X3.205Y-2.684
X3.213Y-3.551
X3.217Y-2.990
X3.226Y-4.002
X3.946Y-0.295
X3.957Y-0.610
X4.349Y-1.489
X4.555Y-0.603
X4.569Y-0.305
X4.780Y-1.256
X5.497Y-1.370
X5.525Y-2.518
X5.611Y-0.926
X5.635Y-0.602
X5.808Y-0.305
T5
X1.860Y-0.442
X1.899Y-0.343
X1.940Y-0.442
X1.980Y-0.343
X2.021Y-0.442
X2.060Y-0.343
T6
X3.569Y-1.877
X3.569Y-1.977
X3.569Y-2.077
X3.569Y-2.177
X3.569Y-2.277
X3.569Y-2.377
X3.569Y-2.477
X3.569Y-2.577
X3.569Y-2.677
X3.569Y-2.777
X3.569Y-2.877
X3.569Y-2.977
X3.569Y-3.077
X3.569Y-3.177
X3.569Y-3.277
X3.569Y-3.377
X3.569Y-3.477
X3.569Y-3.577
X3.569Y-3.677
X3.569Y-3.777
X3.669Y-1.877
X3.669Y-1.977
X3.669Y-2.077
X3.669Y-2.177
X3.669Y-2.277
X3.669Y-2.377
X3.669Y-2.477
X3.669Y-2.577
X3.669Y-2.677
X3.669Y-2.777
X3.669Y-2.877
X3.669Y-2.977
X3.669Y-3.077
X3.669Y-3.177
X3.669Y-3.277
X3.669Y-3.377
X3.669Y-3.477
X3.669Y-3.577
X3.669Y-3.677
X3.669Y-3.777
X4.019Y-1.577
X4.019Y-1.677
X4.019Y-1.777
X4.019Y-1.877
X4.019Y-1.977
X4.019Y-2.077
X4.019Y-2.177
X4.019Y-2.277
X4.019Y-2.377
X4.019Y-2.477
X4.019Y-2.577
X4.019Y-2.677
X4.019Y-2.777
X4.019Y-2.877
X4.019Y-2.977
X4.019Y-3.077
X4.019Y-3.177
X4.019Y-3.277
X4.019Y-3.377
X4.019Y-3.477
X4.019Y-3.577
X4.019Y-3.677
X4.019Y-3.777
X4.019Y-3.877
X4.019Y-3.977
X4.119Y-1.577
X4.119Y-1.677
X4.119Y-1.777
X4.119Y-1.877
X4.119Y-1.977
X4.119Y-2.077
X4.119Y-2.177
X4.119Y-2.277
X4.119Y-2.377
X4.119Y-2.477
X4.119Y-2.577
X4.119Y-2.677
X4.119Y-2.777
X4.119Y-2.877
X4.119Y-2.977
X4.119Y-3.077
X4.119Y-3.177
X4.119Y-3.277
X4.119Y-3.377
X4.119Y-3.477
X4.119Y-3.577
X4.119Y-3.677
X4.119Y-3.777
X4.119Y-3.877
X4.119Y-3.977
X6.119Y-1.577
X6.119Y-1.677
X6.119Y-1.777
X6.119Y-1.877
X6.119Y-1.977
X6.119Y-2.077
X6.119Y-2.177
X6.119Y-2.277
X6.119Y-2.377
X6.119Y-2.477
X6.119Y-2.577
X6.119Y-2.677
X6.119Y-2.777
X6.119Y-2.877
X6.119Y-2.977
X6.119Y-3.077
X6.119Y-3.177
X6.119Y-3.277
X6.119Y-3.377
X6.119Y-3.477
X6.119Y-3.577
X6.119Y-3.677
X6.119Y-3.777
X6.119Y-3.877
X6.119Y-3.977
X6.219Y-1.577
X6.219Y-1.677
X6.219Y-1.777
X6.219Y-1.877
X6.219Y-1.977
X6.219Y-2.077
X6.219Y-2.177
X6.219Y-2.277
X6.219Y-2.377
X6.219Y-2.477
X6.219Y-2.577
X6.219Y-2.677
X6.219Y-2.777
X6.219Y-2.877
X6.219Y-2.977
X6.219Y-3.077
X6.219Y-3.177
X6.219Y-3.277
X6.219Y-3.377
X6.219Y-3.477
X6.219Y-3.577
X6.219Y-3.677
X6.219Y-3.777
X6.219Y-3.877
X6.219Y-3.977
T8
X0.419Y-2.077
X0.419Y-2.177
X0.419Y-2.277
X0.419Y-2.377
X0.419Y-2.477
X0.419Y-2.577
X0.419Y-2.677
X0.419Y-2.777
X0.419Y-2.877
X0.419Y-2.977
X0.419Y-3.077
X0.419Y-3.177
X0.419Y-3.277
X0.419Y-3.377
X0.419Y-3.477
X0.419Y-3.577
X0.419Y-3.677
X0.419Y-3.777
X0.419Y-3.877
X0.419Y-3.977
X0.519Y-2.077
X0.519Y-2.177
X0.519Y-2.277
X0.519Y-2.377
X0.519Y-2.477
X0.519Y-2.577
X0.519Y-2.677
X0.519Y-2.777
X0.519Y-2.877
X0.519Y-2.977
X0.519Y-3.077
X0.519Y-3.177
X0.519Y-3.277
X0.519Y-3.377
X0.519Y-3.477
X0.519Y-3.577
X0.519Y-3.677
X0.519Y-3.777
X0.519Y-3.877
X0.519Y-3.977
X0.619Y-2.077
X0.619Y-2.177
X0.619Y-2.277
X0.619Y-2.377
X0.619Y-2.477
X0.619Y-2.577
X0.619Y-2.677
X0.619Y-2.777
X0.619Y-2.877
X0.619Y-2.977
X0.619Y-3.077
X0.619Y-3.177
X0.619Y-3.277
X0.619Y-3.377
X0.619Y-3.477
X0.619Y-3.577
X0.619Y-3.677
X0.619Y-3.777
X0.619Y-3.877
X0.619Y-3.977
X0.719Y-2.077
X0.719Y-2.177
X0.719Y-2.277
X0.719Y-2.377
X0.719Y-2.477
X0.719Y-2.577
X0.719Y-2.677
X0.719Y-2.777
X0.719Y-2.877
X0.719Y-2.977
X0.719Y-3.077
X0.719Y-3.177
X0.719Y-3.277
X0.719Y-3.377
X0.719Y-3.477
X0.719Y-3.577
X0.719Y-3.677
X0.719Y-3.777
X0.719Y-3.877
X0.719Y-3.977
X0.819Y-2.077
X0.819Y-2.177
X0.819Y-2.277
X0.819Y-2.377
X0.819Y-2.477
X0.819Y-2.577
X0.819Y-2.677
X0.819Y-2.777
X0.819Y-2.877
X0.819Y-2.977
X0.819Y-3.077
X0.819Y-3.177
X0.819Y-3.277
X0.819Y-3.377
X0.819Y-3.477
X0.819Y-3.577
X0.819Y-3.677
X0.819Y-3.777
X0.819Y-3.877
X0.819Y-3.977
X0.919Y-2.077
X0.919Y-2.177
X0.919Y-2.277
X0.919Y-2.377
X0.919Y-2.477
X0.919Y-2.577
X0.919Y-2.677
X0.919Y-2.777
X0.919Y-2.877
X0.919Y-2.977
X0.919Y-3.077
X0.919Y-3.177
X0.919Y-3.277
X0.919Y-3.377
X0.919Y-3.477
X0.919Y-3.577
X0.919Y-3.677
X0.919Y-3.777
X0.919Y-3.877
X0.919Y-3.977
X1.019Y-2.077
X1.019Y-2.177
X1.019Y-2.277
X1.019Y-2.377
X1.019Y-2.477
X1.019Y-2.577
X1.019Y-2.677
X1.019Y-2.777
X1.019Y-2.877
X1.019Y-2.977
X1.019Y-3.077
X1.019Y-3.177
X1.019Y-3.277
X1.019Y-3.377
X1.019Y-3.477
X1.019Y-3.577
X1.019Y-3.677
X1.019Y-3.777
X1.019Y-3.877
X1.019Y-3.977
X1.119Y-2.077
X1.119Y-2.177
X1.119Y-2.277
X1.119Y-2.377
X1.119Y-2.477
X1.119Y-2.577
X1.119Y-2.677
X1.119Y-2.777
X1.119Y-2.877
X1.119Y-2.977
X1.119Y-3.077
X1.119Y-3.177
X1.119Y-3.277
X1.119Y-3.377
X1.119Y-3.477
X1.119Y-3.577
X1.119Y-3.677
X1.119Y-3.777
X1.119Y-3.877
X1.119Y-3.977
X1.219Y-2.077
X1.219Y-2.177
X1.219Y-2.277
X1.219Y-2.377
X1.219Y-2.477
X1.219Y-2.577
X1.219Y-2.677
X1.219Y-2.777
X1.219Y-2.877
X1.219Y-2.977
X1.219Y-3.077
X1.219Y-3.177
X1.219Y-3.277
X1.219Y-3.377
X1.219Y-3.477
X1.219Y-3.577
X1.219Y-3.677
X1.219Y-3.777
X1.219Y-3.877
X1.219Y-3.977
X1.319Y-2.077
X1.319Y-2.177
X1.319Y-2.277
X1.319Y-2.377
X1.319Y-2.477
X1.319Y-2.577
X1.319Y-2.677
X1.319Y-2.777
X1.319Y-2.877
X1.319Y-2.977
X1.319Y-3.077
X1.319Y-3.177
X1.319Y-3.277
X1.319Y-3.377
X1.319Y-3.477
X1.319Y-3.577
X1.319Y-3.677
X1.319Y-3.777
X1.319Y-3.877
X1.319Y-3.977
X1.419Y-2.077
X1.419Y-2.177
X1.419Y-2.277
X1.419Y-2.377
X1.419Y-2.477
X1.419Y-2.577
X1.419Y-2.677
X1.419Y-2.777
X1.419Y-2.877
X1.419Y-2.977
X1.419Y-3.077
X1.419Y-3.177
X1.419Y-3.277
X1.419Y-3.377
X1.419Y-3.477
X1.419Y-3.577
X1.419Y-3.677
X1.419Y-3.777
X1.419Y-3.877
X1.419Y-3.977
X1.519Y-2.077
X1.519Y-2.177
X1.519Y-2.277
X1.519Y-2.377
X1.519Y-2.477
X1.519Y-2.577
X1.519Y-2.677
X1.519Y-2.777
X1.519Y-2.877
X1.519Y-2.977
X1.519Y-3.077
X1.519Y-3.177
X1.519Y-3.277
X1.519Y-3.377
X1.519Y-3.477
X1.519Y-3.577
X1.519Y-3.677
X1.519Y-3.777
X1.519Y-3.877
X1.519Y-3.977
X1.619Y-2.077
X1.619Y-2.177
X1.619Y-2.277
X1.619Y-2.377
X1.619Y-2.477
X1.619Y-2.577
X1.619Y-2.677
X1.619Y-2.777
X1.619Y-2.877
X1.619Y-2.977
X1.619Y-3.077
X1.619Y-3.177
X1.619Y-3.277
X1.619Y-3.377
X1.619Y-3.477
X1.619Y-3.577
X1.619Y-3.677
X1.619Y-3.777
X1.619Y-3.877
X1.619Y-3.977
X1.719Y-2.077
X1.719Y-2.177
X1.719Y-2.277
X1.719Y-2.377
X1.719Y-2.477
X1.719Y-2.577
X1.719Y-2.677
X1.719Y-2.777
X1.719Y-2.877
X1.719Y-2.977
X1.719Y-3.077
X1.719Y-3.177
X1.719Y-3.277
X1.719Y-3.377
X1.719Y-3.477
X1.719Y-3.577
X1.719Y-3.677
X1.719Y-3.777
X1.719Y-3.877
X1.719Y-3.977
X1.819Y-2.077
X1.819Y-2.177
X1.819Y-2.277
X1.819Y-2.377
X1.819Y-2.477
X1.819Y-2.577
X1.819Y-2.677
X1.819Y-2.777
X1.819Y-2.877
X1.819Y-2.977
X1.819Y-3.077
X1.819Y-3.177
X1.819Y-3.277
X1.819Y-3.377
X1.819Y-3.477
X1.819Y-3.577
X1.819Y-3.677
X1.819Y-3.777
X1.819Y-3.877
X1.819Y-3.977
X1.919Y-2.077
X1.919Y-2.177
X1.919Y-2.277
X1.919Y-2.377
X1.919Y-2.477
X1.919Y-2.577
X1.919Y-2.677
X1.919Y-2.777
X1.919Y-2.877
X1.919Y-2.977
X1.919Y-3.077
X1.919Y-3.177
X1.919Y-3.277
X1.919Y-3.377
X1.919Y-3.477
X1.919Y-3.577
X1.919Y-3.677
X1.919Y-3.777
X1.919Y-3.877
X1.919Y-3.977
X2.019Y-2.077
X2.019Y-2.177
X2.019Y-2.277
X2.019Y-2.377
X2.019Y-2.477
X2.019Y-2.577
X2.019Y-2.677
X2.019Y-2.777
X2.019Y-2.877
X2.019Y-2.977
X2.019Y-3.077
X2.019Y-3.177
X2.019Y-3.277
X2.019Y-3.377
X2.019Y-3.477
X2.019Y-3.577
X2.019Y-3.677
X2.019Y-3.777
X2.019Y-3.877
X2.019Y-3.977
X2.119Y-2.077
X2.119Y-2.177
X2.119Y-2.277
X2.119Y-2.377
X2.119Y-2.477
X2.119Y-2.577
X2.119Y-2.677
X2.119Y-2.777
X2.119Y-2.877
X2.119Y-2.977
X2.119Y-3.077
X2.119Y-3.177
X2.119Y-3.277
X2.119Y-3.377
X2.119Y-3.477
X2.119Y-3.577
X2.119Y-3.677
X2.119Y-3.777
X2.119Y-3.877
X2.119Y-3.977
X2.219Y-2.077
X2.219Y-2.177
X2.219Y-2.277
X2.219Y-2.377
X2.219Y-2.477
X2.219Y-2.577
X2.219Y-2.677
X2.219Y-2.777
X2.219Y-2.877
X2.219Y-2.977
X2.219Y-3.077
X2.219Y-3.177
X2.219Y-3.277
X2.219Y-3.377
X2.219Y-3.477
X2.219Y-3.577
X2.219Y-3.677
X2.219Y-3.777
X2.219Y-3.877
X2.219Y-3.977
X2.319Y-2.077
X2.319Y-2.177
X2.319Y-2.277
X2.319Y-2.377
X2.319Y-2.477
X2.319Y-2.577
X2.319Y-2.677
X2.319Y-2.777
X2.319Y-2.877
X2.319Y-2.977
X2.319Y-3.077
X2.319Y-3.177
X2.319Y-3.277
X2.319Y-3.377
X2.319Y-3.477
X2.319Y-3.577
X2.319Y-3.677
X2.319Y-3.777
X2.319Y-3.877
X2.319Y-3.977
X2.419Y-2.077
X2.419Y-2.177
X2.419Y-2.277
X2.419Y-2.377
X2.419Y-2.477
X2.419Y-2.577
X2.419Y-2.677
X2.419Y-2.777
X2.419Y-2.877
X2.419Y-2.977
X2.419Y-3.077
X2.419Y-3.177
X2.419Y-3.277
X2.419Y-3.377
X2.419Y-3.477
X2.419Y-3.577
X2.419Y-3.677
X2.419Y-3.777
X2.419Y-3.877
X2.419Y-3.977
X2.519Y-2.077
X2.519Y-2.177
X2.519Y-2.277
X2.519Y-2.377
X2.519Y-2.477
X2.519Y-2.577
X2.519Y-2.677
X2.519Y-2.777
X2.519Y-2.877
X2.519Y-2.977
X2.519Y-3.077
X2.519Y-3.177
X2.519Y-3.277
X2.519Y-3.377
X2.519Y-3.477
X2.519Y-3.577
X2.519Y-3.677
X2.519Y-3.777
X2.519Y-3.877
X2.519Y-3.977
X2.619Y-2.077
X2.619Y-2.177
X2.619Y-2.277
X2.619Y-2.377
X2.619Y-2.477
X2.619Y-2.577
X2.619Y-2.677
X2.619Y-2.777
X2.619Y-2.877
X2.619Y-2.977
X2.619Y-3.077
X2.619Y-3.177
X2.619Y-3.277
X2.619Y-3.377
X2.619Y-3.477
X2.619Y-3.577
X2.619Y-3.677
X2.619Y-3.777
X2.619Y-3.877
X2.619Y-3.977
X2.719Y-2.077
X2.719Y-2.177
X2.719Y-2.277
X2.719Y-2.377
X2.719Y-2.477
X2.719Y-2.577
X2.719Y-2.677
X2.719Y-2.777
X2.719Y-2.877
X2.719Y-2.977
X2.719Y-3.077
X2.719Y-3.177
X2.719Y-3.277
X2.719Y-3.377
X2.719Y-3.477
X2.719Y-3.577
X2.719Y-3.677
X2.719Y-3.777
X2.719Y-3.877
X2.719Y-3.977
X2.819Y-2.077
X2.819Y-2.177
X2.819Y-2.277
X2.819Y-2.377
X2.819Y-2.477
X2.819Y-2.577
X2.819Y-2.677
X2.819Y-2.777
X2.819Y-2.877
X2.819Y-2.977
X2.819Y-3.077
X2.819Y-3.177
X2.819Y-3.277
X2.819Y-3.377
X2.819Y-3.477
X2.819Y-3.577
X2.819Y-3.677
X2.819Y-3.777
X2.819Y-3.877
X2.819Y-3.977
X2.919Y-2.077
X2.919Y-2.177
X2.919Y-2.277
X2.919Y-2.377
X2.919Y-2.477
X2.919Y-2.577
X2.919Y-2.677
X2.919Y-2.777
X2.919Y-2.877
X2.919Y-2.977
X2.919Y-3.077
X2.919Y-3.177
X2.919Y-3.277
X2.919Y-3.377
X2.919Y-3.477
X2.919Y-3.577
X2.919Y-3.677
X2.919Y-3.777
X2.919Y-3.877
X2.919Y-3.977
X3.019Y-2.077
X3.019Y-2.177
X3.019Y-2.277
X3.019Y-2.377
X3.019Y-2.477
X3.019Y-2.577
X3.019Y-2.677
X3.019Y-2.777
X3.019Y-2.877
X3.019Y-2.977
X3.019Y-3.077
X3.019Y-3.177
X3.019Y-3.277
X3.019Y-3.377
X3.019Y-3.477
X3.019Y-3.577
X3.019Y-3.677
X3.019Y-3.777
X3.019Y-3.877
X3.019Y-3.977
X3.119Y-2.077
X3.119Y-2.177
X3.119Y-2.277
X3.119Y-2.377
X3.119Y-2.477
X3.119Y-2.577
X3.119Y-2.677
X3.119Y-2.777
X3.119Y-2.877
X3.119Y-2.977
X3.119Y-3.077
X3.119Y-3.177
X3.119Y-3.277
X3.119Y-3.377
X3.119Y-3.477
X3.119Y-3.577
X3.119Y-3.677
X3.119Y-3.777
X3.119Y-3.877
X3.119Y-3.977
X3.481Y-1.466
X3.581Y-1.466
X3.654Y-1.246
X3.654Y-1.346
X3.681Y-1.466
X6.772Y-1.494
X6.816Y-0.133
X6.872Y-1.494
X6.972Y-1.494
X7.072Y-1.494
X7.172Y-1.494
X7.272Y-1.494
X7.573Y-0.689
X7.573Y-0.789
X7.573Y-0.889
X7.573Y-0.989
X7.573Y-1.089
X7.573Y-1.189
T9
X7.443Y-0.352
X7.443Y-0.551
X7.543Y-0.452
X7.643Y-0.352
X7.643Y-0.551
T3
X3.247Y-0.084G85X3.247Y-0.058
G05
X3.523Y-0.084G85X3.523Y-0.058
G05
T4
X3.292Y-0.177G85X3.280Y-0.177
G05
X3.489Y-0.177G85X3.477Y-0.177
G05
T7
X0.272Y-0.385G85X0.272Y-0.417
G05
X0.371Y-0.385G85X0.371Y-0.417
G05
X0.485Y-0.204G85X0.453Y-0.204
G05
X0.567Y-0.385G85X0.567Y-0.417
G05
X0.666Y-0.385G85X0.666Y-0.417
G05
T0
M30
