G04 (created by PCBNEW-RS274X (2012-apr-16-27)-stable) date Tue 19 Feb 2013 03:33:24 PM EST*
G01*
G70*
G90*
%MOIN*%
G04 Gerber Fmt 3.4, Leading zero omitted, Abs format*
%FSLAX34Y34*%
G04 APERTURE LIST*
%ADD10C,0.006000*%
%ADD11C,0.140000*%
%ADD12R,0.055000X0.055000*%
%ADD13C,0.055000*%
%ADD14R,0.015700X0.023600*%
%ADD15R,0.023600X0.015700*%
%ADD16R,0.025000X0.045000*%
%ADD17C,0.092900*%
%ADD18C,0.051200*%
%ADD19R,0.009800X0.035400*%
%ADD20R,0.035400X0.009800*%
%ADD21R,0.057100X0.057100*%
%ADD22R,0.045000X0.025000*%
%ADD23R,0.035000X0.055000*%
%ADD24R,0.078700X0.063000*%
%ADD25R,0.009800X0.023600*%
%ADD26C,0.060000*%
%ADD27R,0.060000X0.060000*%
%ADD28R,0.059100X0.098400*%
%ADD29R,0.007900X0.027600*%
%ADD30R,0.027600X0.007900*%
%ADD31C,0.078700*%
%ADD32R,0.055000X0.035000*%
%ADD33R,0.019700X0.035400*%
%ADD34R,0.039400X0.039400*%
%ADD35R,0.047200X0.068900*%
%ADD36R,0.068900X0.047200*%
%ADD37R,0.126000X0.047200*%
%ADD38R,0.060000X0.012500*%
%ADD39R,0.031400X0.031400*%
%ADD40R,0.009800X0.021000*%
%ADD41R,0.021000X0.009800*%
%ADD42C,0.047200*%
%ADD43O,0.063000X0.126000*%
%ADD44O,0.126000X0.063000*%
%ADD45R,0.033500X0.013800*%
%ADD46R,0.019700X0.031500*%
%ADD47R,0.020000X0.030000*%
%ADD48R,0.027600X0.039400*%
%ADD49R,0.036000X0.036000*%
%ADD50R,0.039400X0.023600*%
%ADD51O,0.022000X0.009800*%
%ADD52O,0.009800X0.022000*%
%ADD53R,0.185000X0.185000*%
%ADD54R,0.063000X0.059100*%
%ADD55R,0.047200X0.047200*%
%ADD56R,0.066900X0.094500*%
%ADD57O,0.049200X0.037400*%
%ADD58R,0.059100X0.063000*%
%ADD59R,0.015700X0.059100*%
%ADD60O,0.035400X0.063000*%
%ADD61R,0.009800X0.031500*%
%ADD62R,0.031500X0.009800*%
%ADD63R,0.315000X0.472500*%
%ADD64R,0.020900X0.020900*%
%ADD65C,0.008700*%
G04 APERTURE END LIST*
G54D10*
G54D11*
X35190Y-39770D03*
G54D12*
X36690Y-37770D03*
G54D13*
X35690Y-37770D03*
X36690Y-36770D03*
X35690Y-36770D03*
X36690Y-35770D03*
X35690Y-35770D03*
X36690Y-34770D03*
X35690Y-34770D03*
X36690Y-33770D03*
X35690Y-33770D03*
X36690Y-32770D03*
X35690Y-32770D03*
X36690Y-31770D03*
X35690Y-31770D03*
X36690Y-30770D03*
X35690Y-30770D03*
X36690Y-29770D03*
X35690Y-29770D03*
X36690Y-28770D03*
X35690Y-28770D03*
X36690Y-27770D03*
X35690Y-27770D03*
X36690Y-26770D03*
X35690Y-26770D03*
X36690Y-25770D03*
X35690Y-25770D03*
X36690Y-24770D03*
X35690Y-24770D03*
X36690Y-23770D03*
X35690Y-23770D03*
X36690Y-22770D03*
X35690Y-22770D03*
X36690Y-21770D03*
X35690Y-21770D03*
X36690Y-20770D03*
X35690Y-20770D03*
X36690Y-19770D03*
X35690Y-19770D03*
X36690Y-18770D03*
X35690Y-18770D03*
G54D11*
X35190Y-16770D03*
X01288Y-39805D03*
X01288Y-16770D03*
G54D14*
X69223Y-03180D03*
X69577Y-03180D03*
G54D15*
X69250Y-03533D03*
X69250Y-03887D03*
X67390Y-05967D03*
X67390Y-05613D03*
X68300Y-05357D03*
X68300Y-05003D03*
G54D16*
X63680Y-08000D03*
X64280Y-08000D03*
G54D17*
X21962Y-02450D03*
X17238Y-02450D03*
G54D18*
X20600Y-03434D03*
X20206Y-04419D03*
X19797Y-03434D03*
X19403Y-04419D03*
X18994Y-03434D03*
X18600Y-04419D03*
G54D11*
X01690Y-37270D03*
X72690Y-09270D03*
X74690Y-39270D03*
X09690Y-02270D03*
G54D19*
X29944Y-12844D03*
X30141Y-12844D03*
X29748Y-12844D03*
X29551Y-12844D03*
G54D20*
X30436Y-13139D03*
X30436Y-13335D03*
X30436Y-13729D03*
X30436Y-13533D03*
G54D19*
X29551Y-14025D03*
X29748Y-14025D03*
X30141Y-14025D03*
X29944Y-14025D03*
G54D20*
X29255Y-13533D03*
X29255Y-13729D03*
X29255Y-13335D03*
X29255Y-13139D03*
G54D21*
X29846Y-13434D03*
G54D22*
X67080Y-07120D03*
X67080Y-06520D03*
G54D23*
X48705Y-20650D03*
X47955Y-20650D03*
G54D16*
X48651Y-20002D03*
X48051Y-20002D03*
X09480Y-06860D03*
X08880Y-06860D03*
G54D24*
X17190Y-10770D03*
G54D25*
X17190Y-10219D03*
X16993Y-10219D03*
X16796Y-10219D03*
X16796Y-11321D03*
X17190Y-11321D03*
X16993Y-11321D03*
X17387Y-11321D03*
X17584Y-11321D03*
X17584Y-10219D03*
X17387Y-10219D03*
G54D26*
X16190Y-34770D03*
X16190Y-35770D03*
X17190Y-35770D03*
X17190Y-34770D03*
X19190Y-34770D03*
X19190Y-35770D03*
X18190Y-35770D03*
X18190Y-34770D03*
X18190Y-32770D03*
X18190Y-33770D03*
X19190Y-33770D03*
X19190Y-32770D03*
X17190Y-32770D03*
X17190Y-33770D03*
X16190Y-33770D03*
X16190Y-32770D03*
G54D14*
X67487Y-04460D03*
X67133Y-04460D03*
G54D27*
X68155Y-01325D03*
G54D28*
X69550Y-05270D03*
G54D29*
X69550Y-06018D03*
X69707Y-06018D03*
X69865Y-06018D03*
X69412Y-06018D03*
X69254Y-06018D03*
X69865Y-04522D03*
X69707Y-04521D03*
X69550Y-04521D03*
X69393Y-04521D03*
X69235Y-04521D03*
G54D30*
X68999Y-05270D03*
X68999Y-05427D03*
X68999Y-05585D03*
X68999Y-05113D03*
X68999Y-04955D03*
X68999Y-04798D03*
X68999Y-05742D03*
X70101Y-04798D03*
X70101Y-04955D03*
X70101Y-05113D03*
X70101Y-05270D03*
X70101Y-05427D03*
X70101Y-05585D03*
X70101Y-05742D03*
G54D31*
X75425Y-04515D03*
X76425Y-05515D03*
X74425Y-05515D03*
X74425Y-03515D03*
X76425Y-03515D03*
G54D14*
X33652Y-05945D03*
X33298Y-05945D03*
X34672Y-05920D03*
X34318Y-05920D03*
X33298Y-03240D03*
X33652Y-03240D03*
X34467Y-03240D03*
X34113Y-03240D03*
G54D16*
X36400Y-05240D03*
X35800Y-05240D03*
G54D32*
X36030Y-03525D03*
X36030Y-04275D03*
G54D33*
X04590Y-08720D03*
X04090Y-08720D03*
X03590Y-08720D03*
X03090Y-08720D03*
X05090Y-08720D03*
X05590Y-08720D03*
X06090Y-08720D03*
X04590Y-10720D03*
X05090Y-10720D03*
X05590Y-10720D03*
X06090Y-10720D03*
X04090Y-10720D03*
X03590Y-10720D03*
X03090Y-10720D03*
G54D34*
X72564Y-00648D03*
X73154Y-00648D03*
X73154Y-02222D03*
X72564Y-02222D03*
X71776Y-02222D03*
X71186Y-02222D03*
X71186Y-00648D03*
X71776Y-00648D03*
G54D35*
X17810Y-12780D03*
X16810Y-12780D03*
X28475Y-14865D03*
X29475Y-14865D03*
G54D36*
X20760Y-15070D03*
X20760Y-16070D03*
G54D35*
X30420Y-14865D03*
X31420Y-14865D03*
G54D36*
X54898Y-37666D03*
X54898Y-38666D03*
G54D37*
X69634Y-34683D03*
X72312Y-34683D03*
X69634Y-33108D03*
X72312Y-33108D03*
X69634Y-31533D03*
X72312Y-31533D03*
X69634Y-29958D03*
X72312Y-29958D03*
X69634Y-28384D03*
X72312Y-28384D03*
X69634Y-26809D03*
X72312Y-26809D03*
X69634Y-25234D03*
X72312Y-25234D03*
X69634Y-23659D03*
X72312Y-23659D03*
G54D13*
X40190Y-39770D03*
X40190Y-38770D03*
X40190Y-37770D03*
X40190Y-36770D03*
X40190Y-35770D03*
X40190Y-34770D03*
X40190Y-33770D03*
X40190Y-32770D03*
X40190Y-31770D03*
X40190Y-30770D03*
X40190Y-29770D03*
X40190Y-28770D03*
X40190Y-27770D03*
X40190Y-26770D03*
X40190Y-25770D03*
X40190Y-24770D03*
X40190Y-23770D03*
X40190Y-22770D03*
X40190Y-21770D03*
X40190Y-20770D03*
X40190Y-19770D03*
X40190Y-18770D03*
X40190Y-17770D03*
X40190Y-16770D03*
X40190Y-15770D03*
X62190Y-39770D03*
X62190Y-38770D03*
X62190Y-37770D03*
X62190Y-36770D03*
X62190Y-35770D03*
X62190Y-34770D03*
X62190Y-33770D03*
X62190Y-32770D03*
X62190Y-31770D03*
X62190Y-30770D03*
X62190Y-29770D03*
X62190Y-28770D03*
X62190Y-27770D03*
X62190Y-26770D03*
X62190Y-25770D03*
X62190Y-24770D03*
X62190Y-23770D03*
X62190Y-22770D03*
X62190Y-21770D03*
X62190Y-20770D03*
X62190Y-19770D03*
X62190Y-18770D03*
X62190Y-17770D03*
X62190Y-16770D03*
X62190Y-15770D03*
X61190Y-15770D03*
X61190Y-16770D03*
X61190Y-17770D03*
X61190Y-18770D03*
X61190Y-19770D03*
X61190Y-20770D03*
X61190Y-21770D03*
X61190Y-22770D03*
X61190Y-23770D03*
X61190Y-24770D03*
X61190Y-25770D03*
X61190Y-26770D03*
X61190Y-27770D03*
X61190Y-28770D03*
X61190Y-29770D03*
X61190Y-30770D03*
X61190Y-31770D03*
X61190Y-32770D03*
X61190Y-33770D03*
X61190Y-34770D03*
X61190Y-35770D03*
X61190Y-36770D03*
X61190Y-37770D03*
X61190Y-38770D03*
X61190Y-39770D03*
X41190Y-15770D03*
X41190Y-16770D03*
X41190Y-17770D03*
X41190Y-18770D03*
X41190Y-19770D03*
X41190Y-20770D03*
X41190Y-21770D03*
X41190Y-22770D03*
X41190Y-23770D03*
X41190Y-24770D03*
X41190Y-25770D03*
X41190Y-26770D03*
X41190Y-27770D03*
X41190Y-28770D03*
X41190Y-29770D03*
X41190Y-30770D03*
X41190Y-31770D03*
X41190Y-32770D03*
X41190Y-33770D03*
X41190Y-34770D03*
X41190Y-35770D03*
X41190Y-36770D03*
X41190Y-37770D03*
X41190Y-38770D03*
X41190Y-39770D03*
G54D38*
X35054Y-03747D03*
X35054Y-03997D03*
X35054Y-04497D03*
X35054Y-04247D03*
X35054Y-05247D03*
X35054Y-05497D03*
X35054Y-04997D03*
X35054Y-04747D03*
X32854Y-04747D03*
X32854Y-04997D03*
X32854Y-05497D03*
X32854Y-05247D03*
X32854Y-04247D03*
X32854Y-04497D03*
X32854Y-03997D03*
X32854Y-03747D03*
G54D39*
X74148Y-20042D03*
X74738Y-20042D03*
X74148Y-20790D03*
X74738Y-20790D03*
G54D40*
X51088Y-19253D03*
X50891Y-19253D03*
X50694Y-19253D03*
X50498Y-19253D03*
X50301Y-19253D03*
X50104Y-19253D03*
G54D41*
X49867Y-19490D03*
X49867Y-19687D03*
X49867Y-19884D03*
X49867Y-20081D03*
X49867Y-20277D03*
X49867Y-20474D03*
X49867Y-20671D03*
X49867Y-20868D03*
G54D40*
X50104Y-21105D03*
X50301Y-21105D03*
X50498Y-21105D03*
X50694Y-21105D03*
X50891Y-21105D03*
X51088Y-21105D03*
G54D41*
X51325Y-20868D03*
X51325Y-20671D03*
X51325Y-20474D03*
X51325Y-20277D03*
X51325Y-20081D03*
X51325Y-19884D03*
X51325Y-19687D03*
X51325Y-19490D03*
G54D27*
X72720Y-14940D03*
G54D26*
X71720Y-14940D03*
X70720Y-14940D03*
X69720Y-14940D03*
X68720Y-14940D03*
X67720Y-14940D03*
G54D27*
X75733Y-06892D03*
G54D26*
X75733Y-07892D03*
X75733Y-08892D03*
X75733Y-09892D03*
X75733Y-10892D03*
X75733Y-11892D03*
G54D12*
X36540Y-13455D03*
G54D13*
X36540Y-12455D03*
G54D42*
X04691Y-04010D03*
X06659Y-02042D03*
X06659Y-01057D03*
X02721Y-01057D03*
G54D43*
X02721Y-04010D03*
X05674Y-04010D03*
X06659Y-04010D03*
X03706Y-04010D03*
G54D44*
X04690Y-02042D03*
G54D42*
X02721Y-02042D03*
G54D15*
X68170Y-03268D03*
X68170Y-03622D03*
X68600Y-03268D03*
X68600Y-03622D03*
G54D14*
X22263Y-04420D03*
X22617Y-04420D03*
X22273Y-03520D03*
X22627Y-03520D03*
X25300Y-10435D03*
X24946Y-10435D03*
X24552Y-10790D03*
X24198Y-10790D03*
G54D15*
X25596Y-12817D03*
X25596Y-12463D03*
G54D14*
X34456Y-12005D03*
X34102Y-12005D03*
X34456Y-13005D03*
X34102Y-13005D03*
X31003Y-12980D03*
X31357Y-12980D03*
G54D15*
X71760Y-03933D03*
X71760Y-04287D03*
G54D14*
X31873Y-15520D03*
X31519Y-15520D03*
X75703Y-20022D03*
X76057Y-20022D03*
X75703Y-20770D03*
X76057Y-20770D03*
X31401Y-13788D03*
X31047Y-13788D03*
G54D15*
X28200Y-13712D03*
X28200Y-13358D03*
G54D14*
X18391Y-09727D03*
X18037Y-09727D03*
G54D15*
X17544Y-08664D03*
X17544Y-09018D03*
X64925Y-08107D03*
X64925Y-07753D03*
X67705Y-08122D03*
X67705Y-07768D03*
G54D14*
X69612Y-06435D03*
X69258Y-06435D03*
X70727Y-04405D03*
X70373Y-04405D03*
G54D15*
X71760Y-04653D03*
X71760Y-05007D03*
G54D14*
X72502Y-04470D03*
X72148Y-04470D03*
X72492Y-03745D03*
X72138Y-03745D03*
G54D15*
X67705Y-03283D03*
X67705Y-03637D03*
X54815Y-36985D03*
X54815Y-36631D03*
X55378Y-36985D03*
X55378Y-36631D03*
G54D14*
X57886Y-38245D03*
X57532Y-38245D03*
X27464Y-15756D03*
X27818Y-15756D03*
X66323Y-00800D03*
X66677Y-00800D03*
G54D15*
X08615Y-09372D03*
X08615Y-09018D03*
G54D14*
X09088Y-09020D03*
X09442Y-09020D03*
G54D15*
X02590Y-09268D03*
X02590Y-09622D03*
X06615Y-09218D03*
X06615Y-09572D03*
X06615Y-08443D03*
X06615Y-08797D03*
X02590Y-08493D03*
X02590Y-08847D03*
X22714Y-15664D03*
X22714Y-15310D03*
G54D14*
X22647Y-14570D03*
X22293Y-14570D03*
G54D15*
X22163Y-16845D03*
X22163Y-16491D03*
G54D14*
X30338Y-12410D03*
X29984Y-12410D03*
X30377Y-15874D03*
X30023Y-15874D03*
G54D15*
X27545Y-10173D03*
X27545Y-10527D03*
G54D14*
X31193Y-13400D03*
X31547Y-13400D03*
X66323Y-01200D03*
X66677Y-01200D03*
X28912Y-14095D03*
X28558Y-14095D03*
G54D15*
X17033Y-09392D03*
X17033Y-09746D03*
G54D14*
X19316Y-12010D03*
X18962Y-12010D03*
G54D15*
X17544Y-09392D03*
X17544Y-09746D03*
X66120Y-02598D03*
X66120Y-02952D03*
X28192Y-12666D03*
X28192Y-13020D03*
G54D14*
X16658Y-09707D03*
X16304Y-09707D03*
G54D22*
X06690Y-05745D03*
X06690Y-05145D03*
X02715Y-05720D03*
X02715Y-05120D03*
G54D16*
X65165Y-02055D03*
X65765Y-02055D03*
G54D22*
X65370Y-02585D03*
X65370Y-03185D03*
G54D16*
X29634Y-15874D03*
X29034Y-15874D03*
X27262Y-14418D03*
X27862Y-14418D03*
G54D22*
X07640Y-07570D03*
X07640Y-08170D03*
G54D16*
X62575Y-03685D03*
X63175Y-03685D03*
G54D22*
X63740Y-07430D03*
X63740Y-06830D03*
G54D16*
X19439Y-11341D03*
X18839Y-11341D03*
G54D22*
X64650Y-01950D03*
X64650Y-02550D03*
X01715Y-07470D03*
X01715Y-08070D03*
G54D16*
X05540Y-11620D03*
X04940Y-11620D03*
X03640Y-11620D03*
X04240Y-11620D03*
X63340Y-04700D03*
X62740Y-04700D03*
G54D22*
X08015Y-09820D03*
X08015Y-09220D03*
G54D16*
X32587Y-14811D03*
X31987Y-14811D03*
G54D22*
X67765Y-07080D03*
X67765Y-06480D03*
X66720Y-02470D03*
X66720Y-03070D03*
X68600Y-07060D03*
X68600Y-06460D03*
G54D16*
X70845Y-03540D03*
X70245Y-03540D03*
X69290Y-02700D03*
X69890Y-02700D03*
G54D22*
X35122Y-12260D03*
X35122Y-12860D03*
X04615Y-07595D03*
X04615Y-08195D03*
G54D23*
X65075Y-01375D03*
X65825Y-01375D03*
X69085Y-02060D03*
X69835Y-02060D03*
X48923Y-21656D03*
X48173Y-21656D03*
X32855Y-13740D03*
X32105Y-13740D03*
G54D32*
X55662Y-38165D03*
X55662Y-38915D03*
G54D23*
X56330Y-37792D03*
X57080Y-37792D03*
G54D32*
X21790Y-13755D03*
X21790Y-14505D03*
X21080Y-14505D03*
X21080Y-13755D03*
X27510Y-13025D03*
X27510Y-13775D03*
G54D23*
X35526Y-02573D03*
X34776Y-02573D03*
G54D32*
X16245Y-11086D03*
X16245Y-10336D03*
G54D23*
X16455Y-11940D03*
X17205Y-11940D03*
G54D32*
X28940Y-17273D03*
X28940Y-16523D03*
G54D45*
X63988Y-02915D03*
X63988Y-03171D03*
X63988Y-02659D03*
X63122Y-03171D03*
X63122Y-02659D03*
G54D46*
X24493Y-09333D03*
X24493Y-10121D03*
G54D47*
X08815Y-08520D03*
X09565Y-08520D03*
X08815Y-07520D03*
X09190Y-08520D03*
X09565Y-07520D03*
G54D48*
X21390Y-15030D03*
X21765Y-15030D03*
X22140Y-15030D03*
X22140Y-16030D03*
X21765Y-16030D03*
X21390Y-16030D03*
G54D49*
X25590Y-10920D03*
X25590Y-11620D03*
X24790Y-11270D03*
G54D50*
X27543Y-16721D03*
X27543Y-16209D03*
X28291Y-16465D03*
G54D51*
X66584Y-06273D03*
X66584Y-06076D03*
X66584Y-05879D03*
X66584Y-05682D03*
X66584Y-05485D03*
X66584Y-05288D03*
X66584Y-05082D03*
X66584Y-04885D03*
X66584Y-04688D03*
X66584Y-04491D03*
X66584Y-04294D03*
X66584Y-04107D03*
G54D52*
X66358Y-03881D03*
X66161Y-03881D03*
X65964Y-03881D03*
X65767Y-03881D03*
X65570Y-03881D03*
X65373Y-03881D03*
X65177Y-03881D03*
X64980Y-03881D03*
X64783Y-03881D03*
X64586Y-03881D03*
X64389Y-03881D03*
X64192Y-03881D03*
G54D51*
X63966Y-04107D03*
X63966Y-04304D03*
X63966Y-04501D03*
X63966Y-04698D03*
X63966Y-04895D03*
X63966Y-05092D03*
X63966Y-05288D03*
X63966Y-05485D03*
X63966Y-05682D03*
X63966Y-05879D03*
X63966Y-06076D03*
X63966Y-06273D03*
G54D52*
X64192Y-06499D03*
X64389Y-06499D03*
X64586Y-06499D03*
X64783Y-06499D03*
X64980Y-06499D03*
X65177Y-06499D03*
X65374Y-06499D03*
X65570Y-06499D03*
X65767Y-06499D03*
X65964Y-06499D03*
X66161Y-06499D03*
X66358Y-06499D03*
G54D53*
X65275Y-05190D03*
G54D54*
X03115Y-07763D03*
G54D55*
X02721Y-06759D03*
X03509Y-06759D03*
G54D54*
X06290Y-07763D03*
G54D55*
X05896Y-06759D03*
X06684Y-06759D03*
G54D56*
X66993Y-08105D03*
X65537Y-08105D03*
G54D57*
X32864Y-01770D03*
G54D58*
X32766Y-00707D03*
X34931Y-00707D03*
X33455Y-00707D03*
G54D59*
X34348Y-01786D03*
X34098Y-01786D03*
X33848Y-01786D03*
X33598Y-01786D03*
X33348Y-01786D03*
G54D60*
X32470Y-00707D03*
X35226Y-00707D03*
G54D58*
X34242Y-00707D03*
G54D57*
X34832Y-01770D03*
G54D61*
X50107Y-27146D03*
X50304Y-27146D03*
X50501Y-27146D03*
X50697Y-27146D03*
X50894Y-27146D03*
X51091Y-27146D03*
X51288Y-27146D03*
X51485Y-27146D03*
X51682Y-27146D03*
X51879Y-27146D03*
X52075Y-27146D03*
X52272Y-27146D03*
G54D62*
X52567Y-26852D03*
X52567Y-26655D03*
X52567Y-26458D03*
X52567Y-26262D03*
X52567Y-26065D03*
X52567Y-25868D03*
X52567Y-25671D03*
X52567Y-25474D03*
X52567Y-25277D03*
X52567Y-25080D03*
X52567Y-24884D03*
X52567Y-24687D03*
G54D61*
X52273Y-24392D03*
X52076Y-24392D03*
X51879Y-24392D03*
X51682Y-24392D03*
X51485Y-24392D03*
X51288Y-24392D03*
X51091Y-24392D03*
X50895Y-24392D03*
X50698Y-24392D03*
X50501Y-24392D03*
X50304Y-24392D03*
X50107Y-24392D03*
G54D62*
X49811Y-24687D03*
X49811Y-24884D03*
X49811Y-25080D03*
X49811Y-25277D03*
X49811Y-25474D03*
X49811Y-25671D03*
X49811Y-25868D03*
X49811Y-26065D03*
X49811Y-26262D03*
X49811Y-26458D03*
X49811Y-26655D03*
X49811Y-26852D03*
G54D26*
X20190Y-34770D03*
X20190Y-35770D03*
X21190Y-35770D03*
X21190Y-34770D03*
X23190Y-34770D03*
X23190Y-35770D03*
X22190Y-35770D03*
X22190Y-34770D03*
X22190Y-32770D03*
X22190Y-33770D03*
X23190Y-33770D03*
X23190Y-32770D03*
X21190Y-32770D03*
X21190Y-33770D03*
X20190Y-33770D03*
X20190Y-32770D03*
X20190Y-30770D03*
X20190Y-31770D03*
X21190Y-31770D03*
X21190Y-30770D03*
X23190Y-30770D03*
X23190Y-31770D03*
X22190Y-31770D03*
X22190Y-30770D03*
X22190Y-28770D03*
X22190Y-29770D03*
X23190Y-29770D03*
X23190Y-28770D03*
X21190Y-28770D03*
X21190Y-29770D03*
X20190Y-29770D03*
X20190Y-28770D03*
X16190Y-30770D03*
X16190Y-31770D03*
X17190Y-31770D03*
X17190Y-30770D03*
X19190Y-30770D03*
X19190Y-31770D03*
X18190Y-31770D03*
X18190Y-30770D03*
X18190Y-28770D03*
X18190Y-29770D03*
X19190Y-29770D03*
X19190Y-28770D03*
X17190Y-28770D03*
X17190Y-29770D03*
X16190Y-29770D03*
X16190Y-28770D03*
X24190Y-30770D03*
X24190Y-31770D03*
X25190Y-31770D03*
X25190Y-30770D03*
X27190Y-30770D03*
X27190Y-31770D03*
X26190Y-31770D03*
X26190Y-30770D03*
X26190Y-28770D03*
X26190Y-29770D03*
X27190Y-29770D03*
X27190Y-28770D03*
X25190Y-28770D03*
X25190Y-29770D03*
X24190Y-29770D03*
X24190Y-28770D03*
X28190Y-30770D03*
X28190Y-31770D03*
X29190Y-31770D03*
X29190Y-30770D03*
X31190Y-30770D03*
X31190Y-31770D03*
X30190Y-31770D03*
X30190Y-30770D03*
X30190Y-28770D03*
X30190Y-29770D03*
X31190Y-29770D03*
X31190Y-28770D03*
X29190Y-28770D03*
X29190Y-29770D03*
X28190Y-29770D03*
X28190Y-28770D03*
X28190Y-34770D03*
X28190Y-35770D03*
X29190Y-35770D03*
X29190Y-34770D03*
X31190Y-34770D03*
X31190Y-35770D03*
X30190Y-35770D03*
X30190Y-34770D03*
X30190Y-32770D03*
X30190Y-33770D03*
X31190Y-33770D03*
X31190Y-32770D03*
X29190Y-32770D03*
X29190Y-33770D03*
X28190Y-33770D03*
X28190Y-32770D03*
X24190Y-34770D03*
X24190Y-35770D03*
X25190Y-35770D03*
X25190Y-34770D03*
X27190Y-34770D03*
X27190Y-35770D03*
X26190Y-35770D03*
X26190Y-34770D03*
X26190Y-32770D03*
X26190Y-33770D03*
X27190Y-33770D03*
X27190Y-32770D03*
X25190Y-32770D03*
X25190Y-33770D03*
X24190Y-33770D03*
X24190Y-32770D03*
X24190Y-26770D03*
X24190Y-27770D03*
X25190Y-27770D03*
X25190Y-26770D03*
X27190Y-26770D03*
X27190Y-27770D03*
X26190Y-27770D03*
X26190Y-26770D03*
X26190Y-24770D03*
X26190Y-25770D03*
X27190Y-25770D03*
X27190Y-24770D03*
X25190Y-24770D03*
X25190Y-25770D03*
X24190Y-25770D03*
X24190Y-24770D03*
X28190Y-26770D03*
X28190Y-27770D03*
X29190Y-27770D03*
X29190Y-26770D03*
X31190Y-26770D03*
X31190Y-27770D03*
X30190Y-27770D03*
X30190Y-26770D03*
X30190Y-24770D03*
X30190Y-25770D03*
X31190Y-25770D03*
X31190Y-24770D03*
X29190Y-24770D03*
X29190Y-25770D03*
X28190Y-25770D03*
X28190Y-24770D03*
X28190Y-22770D03*
X28190Y-23770D03*
X29190Y-23770D03*
X29190Y-22770D03*
X31190Y-22770D03*
X31190Y-23770D03*
X30190Y-23770D03*
X30190Y-22770D03*
X30190Y-20770D03*
X30190Y-21770D03*
X31190Y-21770D03*
X31190Y-20770D03*
X29190Y-20770D03*
X29190Y-21770D03*
X28190Y-21770D03*
X28190Y-20770D03*
X24190Y-22770D03*
X24190Y-23770D03*
X25190Y-23770D03*
X25190Y-22770D03*
X27190Y-22770D03*
X27190Y-23770D03*
X26190Y-23770D03*
X26190Y-22770D03*
X26190Y-20770D03*
X26190Y-21770D03*
X27190Y-21770D03*
X27190Y-20770D03*
X25190Y-20770D03*
X25190Y-21770D03*
X24190Y-21770D03*
X24190Y-20770D03*
X20190Y-26770D03*
X20190Y-27770D03*
X21190Y-27770D03*
X21190Y-26770D03*
X23190Y-26770D03*
X23190Y-27770D03*
X22190Y-27770D03*
X22190Y-26770D03*
X22190Y-24770D03*
X22190Y-25770D03*
X23190Y-25770D03*
X23190Y-24770D03*
X21190Y-24770D03*
X21190Y-25770D03*
X20190Y-25770D03*
X20190Y-24770D03*
X16190Y-26770D03*
X16190Y-27770D03*
X17190Y-27770D03*
X17190Y-26770D03*
X19190Y-26770D03*
X19190Y-27770D03*
X18190Y-27770D03*
X18190Y-26770D03*
X18190Y-24770D03*
X18190Y-25770D03*
X19190Y-25770D03*
X19190Y-24770D03*
X17190Y-24770D03*
X17190Y-25770D03*
X16190Y-25770D03*
X16190Y-24770D03*
X16190Y-22770D03*
X16190Y-23770D03*
X17190Y-23770D03*
X17190Y-22770D03*
X19190Y-22770D03*
X19190Y-23770D03*
X18190Y-23770D03*
X18190Y-22770D03*
X18190Y-20770D03*
X18190Y-21770D03*
X19190Y-21770D03*
X19190Y-20770D03*
X17190Y-20770D03*
X17190Y-21770D03*
X16190Y-21770D03*
X16190Y-20770D03*
X04190Y-34770D03*
X04190Y-35770D03*
X05190Y-35770D03*
X05190Y-34770D03*
X07190Y-34770D03*
X07190Y-35770D03*
X06190Y-35770D03*
X06190Y-34770D03*
X06190Y-32770D03*
X06190Y-33770D03*
X07190Y-33770D03*
X07190Y-32770D03*
X05190Y-32770D03*
X05190Y-33770D03*
X04190Y-33770D03*
X04190Y-32770D03*
X12190Y-34770D03*
X12190Y-35770D03*
X13190Y-35770D03*
X13190Y-34770D03*
X15190Y-34770D03*
X15190Y-35770D03*
X14190Y-35770D03*
X14190Y-34770D03*
X14190Y-32770D03*
X14190Y-33770D03*
X15190Y-33770D03*
X15190Y-32770D03*
X13190Y-32770D03*
X13190Y-33770D03*
X12190Y-33770D03*
X12190Y-32770D03*
X12190Y-30770D03*
X12190Y-31770D03*
X13190Y-31770D03*
X13190Y-30770D03*
X15190Y-30770D03*
X15190Y-31770D03*
X14190Y-31770D03*
X14190Y-30770D03*
X14190Y-28770D03*
X14190Y-29770D03*
X15190Y-29770D03*
X15190Y-28770D03*
X13190Y-28770D03*
X13190Y-29770D03*
X12190Y-29770D03*
X12190Y-28770D03*
X12190Y-22770D03*
X12190Y-23770D03*
X13190Y-23770D03*
X13190Y-22770D03*
X15190Y-22770D03*
X15190Y-23770D03*
X14190Y-23770D03*
X14190Y-22770D03*
X14190Y-20770D03*
X14190Y-21770D03*
X15190Y-21770D03*
X15190Y-20770D03*
X13190Y-20770D03*
X13190Y-21770D03*
X12190Y-21770D03*
X12190Y-20770D03*
X12190Y-26770D03*
X12190Y-27770D03*
X13190Y-27770D03*
X13190Y-26770D03*
X15190Y-26770D03*
X15190Y-27770D03*
X14190Y-27770D03*
X14190Y-26770D03*
X14190Y-24770D03*
X14190Y-25770D03*
X15190Y-25770D03*
X15190Y-24770D03*
X13190Y-24770D03*
X13190Y-25770D03*
X12190Y-25770D03*
X12190Y-24770D03*
X04190Y-26770D03*
X04190Y-27770D03*
X05190Y-27770D03*
X05190Y-26770D03*
X07190Y-26770D03*
X07190Y-27770D03*
X06190Y-27770D03*
X06190Y-26770D03*
X06190Y-24770D03*
X06190Y-25770D03*
X07190Y-25770D03*
X07190Y-24770D03*
X05190Y-24770D03*
X05190Y-25770D03*
X04190Y-25770D03*
X04190Y-24770D03*
X04190Y-22770D03*
X04190Y-23770D03*
X05190Y-23770D03*
X05190Y-22770D03*
X07190Y-22770D03*
X07190Y-23770D03*
X06190Y-23770D03*
X06190Y-22770D03*
X06190Y-20770D03*
X06190Y-21770D03*
X07190Y-21770D03*
X07190Y-20770D03*
X05190Y-20770D03*
X05190Y-21770D03*
X04190Y-21770D03*
X04190Y-20770D03*
X04190Y-30770D03*
X04190Y-31770D03*
X05190Y-31770D03*
X05190Y-30770D03*
X07190Y-30770D03*
X07190Y-31770D03*
X06190Y-31770D03*
X06190Y-30770D03*
X06190Y-28770D03*
X06190Y-29770D03*
X07190Y-29770D03*
X07190Y-28770D03*
X05190Y-28770D03*
X05190Y-29770D03*
X04190Y-29770D03*
X04190Y-28770D03*
X04190Y-38770D03*
X04190Y-39770D03*
X05190Y-39770D03*
X05190Y-38770D03*
X07190Y-38770D03*
X07190Y-39770D03*
X06190Y-39770D03*
X06190Y-38770D03*
X06190Y-36770D03*
X06190Y-37770D03*
X07190Y-37770D03*
X07190Y-36770D03*
X05190Y-36770D03*
X05190Y-37770D03*
X04190Y-37770D03*
X04190Y-36770D03*
X12190Y-38770D03*
X12190Y-39770D03*
X13190Y-39770D03*
X13190Y-38770D03*
X15190Y-38770D03*
X15190Y-39770D03*
X14190Y-39770D03*
X14190Y-38770D03*
X14190Y-36770D03*
X14190Y-37770D03*
X15190Y-37770D03*
X15190Y-36770D03*
X13190Y-36770D03*
X13190Y-37770D03*
X12190Y-37770D03*
X12190Y-36770D03*
X16190Y-38770D03*
X16190Y-39770D03*
X17190Y-39770D03*
X17190Y-38770D03*
X19190Y-38770D03*
X19190Y-39770D03*
X18190Y-39770D03*
X18190Y-38770D03*
X18190Y-36770D03*
X18190Y-37770D03*
X19190Y-37770D03*
X19190Y-36770D03*
X17190Y-36770D03*
X17190Y-37770D03*
X16190Y-37770D03*
X16190Y-36770D03*
X20190Y-38770D03*
X20190Y-39770D03*
X21190Y-39770D03*
X21190Y-38770D03*
X23190Y-38770D03*
X23190Y-39770D03*
X22190Y-39770D03*
X22190Y-38770D03*
X22190Y-36770D03*
X22190Y-37770D03*
X23190Y-37770D03*
X23190Y-36770D03*
X21190Y-36770D03*
X21190Y-37770D03*
X20190Y-37770D03*
X20190Y-36770D03*
X24190Y-38770D03*
X24190Y-39770D03*
X25190Y-39770D03*
X25190Y-38770D03*
X27190Y-38770D03*
X27190Y-39770D03*
X26190Y-39770D03*
X26190Y-38770D03*
X26190Y-36770D03*
X26190Y-37770D03*
X27190Y-37770D03*
X27190Y-36770D03*
X25190Y-36770D03*
X25190Y-37770D03*
X24190Y-37770D03*
X24190Y-36770D03*
X28190Y-38770D03*
X28190Y-39770D03*
X29190Y-39770D03*
X29190Y-38770D03*
X31190Y-38770D03*
X31190Y-39770D03*
X30190Y-39770D03*
X30190Y-38770D03*
X30190Y-36770D03*
X30190Y-37770D03*
X31190Y-37770D03*
X31190Y-36770D03*
X29190Y-36770D03*
X29190Y-37770D03*
X28190Y-37770D03*
X28190Y-36770D03*
X08190Y-38770D03*
X08190Y-39770D03*
X09190Y-39770D03*
X09190Y-38770D03*
X11190Y-38770D03*
X11190Y-39770D03*
X10190Y-39770D03*
X10190Y-38770D03*
X10190Y-36770D03*
X10190Y-37770D03*
X11190Y-37770D03*
X11190Y-36770D03*
X09190Y-36770D03*
X09190Y-37770D03*
X08190Y-37770D03*
X08190Y-36770D03*
X08190Y-22770D03*
X08190Y-23770D03*
X09190Y-23770D03*
X09190Y-22770D03*
X11190Y-22770D03*
X11190Y-23770D03*
X10190Y-23770D03*
X10190Y-22770D03*
X10190Y-20770D03*
X10190Y-21770D03*
X11190Y-21770D03*
X11190Y-20770D03*
X09190Y-20770D03*
X09190Y-21770D03*
X08190Y-21770D03*
X08190Y-20770D03*
X08190Y-26770D03*
X08190Y-27770D03*
X09190Y-27770D03*
X09190Y-26770D03*
X11190Y-26770D03*
X11190Y-27770D03*
X10190Y-27770D03*
X10190Y-26770D03*
X10190Y-24770D03*
X10190Y-25770D03*
X11190Y-25770D03*
X11190Y-24770D03*
X09190Y-24770D03*
X09190Y-25770D03*
X08190Y-25770D03*
X08190Y-24770D03*
X08190Y-34770D03*
X08190Y-35770D03*
X09190Y-35770D03*
X09190Y-34770D03*
X11190Y-34770D03*
X11190Y-35770D03*
X10190Y-35770D03*
X10190Y-34770D03*
X10190Y-32770D03*
X10190Y-33770D03*
X11190Y-33770D03*
X11190Y-32770D03*
X09190Y-32770D03*
X09190Y-33770D03*
X08190Y-33770D03*
X08190Y-32770D03*
X20190Y-22770D03*
X20190Y-23770D03*
X21190Y-23770D03*
X21190Y-22770D03*
X23190Y-22770D03*
X23190Y-23770D03*
X22190Y-23770D03*
X22190Y-22770D03*
X22190Y-20770D03*
X22190Y-21770D03*
X23190Y-21770D03*
X23190Y-20770D03*
X21190Y-20770D03*
X21190Y-21770D03*
X20190Y-21770D03*
X20190Y-20770D03*
X08190Y-30770D03*
X08190Y-31770D03*
X09190Y-31770D03*
X09190Y-30770D03*
X11190Y-30770D03*
X11190Y-31770D03*
X10190Y-31770D03*
X10190Y-30770D03*
X10190Y-28770D03*
X10190Y-29770D03*
X11190Y-29770D03*
X11190Y-28770D03*
X09190Y-28770D03*
X09190Y-29770D03*
X08190Y-29770D03*
X08190Y-28770D03*
G54D14*
X64667Y-07300D03*
X64313Y-07300D03*
G54D63*
X48407Y-03041D03*
X55493Y-03040D03*
G54D54*
X35100Y-11488D03*
G54D55*
X34706Y-10484D03*
X35494Y-10484D03*
G54D49*
X47184Y-39927D03*
X47184Y-39227D03*
X47984Y-39577D03*
G54D15*
X48371Y-38612D03*
X48371Y-38258D03*
G54D12*
X36812Y-14656D03*
G54D13*
X35812Y-14656D03*
X34812Y-14656D03*
G54D64*
X47466Y-38632D03*
X47033Y-38435D03*
X47466Y-38238D03*
G54D65*
X56287Y-38536D03*
X56287Y-38694D03*
X56287Y-38379D03*
X56445Y-38379D03*
X56445Y-38536D03*
X56445Y-38694D03*
X56602Y-38379D03*
X56602Y-38536D03*
X56602Y-38694D03*
X56602Y-38851D03*
X56445Y-38851D03*
X56287Y-38851D03*
M02*
