M48
;DRILL file {Pcbnew (2012-apr-16-27)-stable} date Tue 19 Feb 2013 03:33:53 PM EST
;FORMAT={2:4/ absolute / inch / keep zeros}
FMAT,2
INCH,TZ
T1C0.011
T2C0.015
T3C0.018
T4C0.020
T5C0.022
T6C0.032
T7C0.032
T8C0.039
T9C0.040
T10C0.059
%
G90
G05
M72
T1
X000694Y-006782
X001610Y-005680
X002120Y-008970
X002380Y-008070
X002550Y-012130
X002700Y-010210
X003740Y-009240
X003820Y-007360
X003840Y-005460
X004120Y-012160
X004125Y-007725
X004250Y-009565
X004808Y-009254
X005170Y-007450
X005630Y-005580
X006590Y-012210
X007229Y-010010
X007520Y-005560
X008200Y-007040
X008253Y-008396
X008690Y-012210
X010123Y-008506
X010399Y-006144
X014315Y-012385
X014600Y-017580
X014970Y-017520
X014985Y-011506
X015340Y-011939
X015740Y-012520
X016180Y-013460
X016190Y-012770
X016300Y-016650
X016650Y-004420
X016890Y-010550
X016890Y-010960
X016940Y-014350
X017470Y-010550
X017470Y-010960
X017820Y-013632
X018155Y-010593
X018650Y-012880
X018930Y-017180
X019690Y-012404
X020005Y-011420
X020162Y-013191
X020370Y-007600
X020450Y-014500
X021220Y-017550
X021460Y-013250
X021630Y-016630
X021650Y-008160
X022170Y-004810
X022620Y-016080
X023380Y-017510
X025162Y-012128
X026344Y-011616
X027260Y-012560
X027525Y-010875
X028430Y-015845
X028580Y-012820
X028800Y-013150
X028910Y-012750
X029220Y-012685
X029700Y-013280
X029700Y-013580
X029990Y-013580
X030000Y-013290
X030100Y-011665
X030180Y-007500
X030600Y-005230
X030625Y-012290
X030885Y-018415
X031095Y-011670
X031220Y-006820
X031240Y-003850
X031934Y-009018
X031945Y-012795
X031950Y-011790
X032052Y-004176
X032288Y-008585
X032420Y-024130
X032540Y-003230
X032584Y-005876
X032610Y-011690
X032670Y-007170
X032745Y-012880
X032830Y-013165
X032859Y-014341
X033300Y-023020
X033420Y-016130
X033470Y-013664
X034000Y-006190
X034218Y-029254
X034218Y-030278
X034296Y-021774
X034375Y-019176
X034414Y-027916
X034510Y-004460
X034552Y-031597
X034769Y-022876
X034870Y-003360
X034887Y-029490
X034887Y-032975
X035281Y-028309
X035556Y-017955
X035690Y-030770
X035690Y-031770
X035970Y-002840
X036180Y-004780
X036186Y-024294
X036270Y-010270
X036690Y-031770
X036820Y-007480
X037446Y-031262
X037800Y-021695
X037859Y-030416
X038135Y-022227
X038174Y-032128
X038273Y-023487
X038529Y-032443
X038883Y-032876
X039001Y-033388
X039060Y-008979
X039099Y-009451
X039099Y-034963
X039493Y-024057
X040190Y-027770
X040190Y-028770
X040190Y-029770
X041190Y-028770
X041725Y-017785
X041725Y-017785
X041895Y-035908
X042310Y-017450
X042370Y-022890
X042544Y-013947
X042790Y-022700
X043076Y-024668
X043076Y-026420
X043706Y-006971
X043740Y-010360
X043745Y-039097
X044355Y-023368
X044533Y-002758
X045123Y-025672
X045359Y-007837
X045359Y-008270
X045359Y-018939
X046186Y-038191
X046280Y-027080
X046300Y-011770
X046800Y-020040
X046836Y-038868
X046995Y-011575
X047013Y-010790
X047013Y-032739
X047170Y-035908
X047387Y-032345
X047485Y-037719
X047540Y-023110
X047564Y-036105
X047800Y-032443
X047810Y-019490
X047920Y-023600
X047958Y-028664
X048155Y-024372
X048155Y-025081
X048155Y-026754
X048450Y-025364
X048529Y-035298
X048725Y-034510
X048784Y-016577
X049080Y-035207
X049325Y-027405
X049440Y-038725
X049887Y-035199
X049926Y-027837
X050123Y-021616
X050162Y-016774
X050202Y-028821
X050359Y-035750
X050556Y-030317
X050775Y-025830
X051285Y-024945
X051340Y-022890
X051340Y-036260
X051380Y-036970
X051540Y-034294
X051540Y-038782
X051639Y-033191
X051678Y-022542
X051750Y-026420
X051777Y-021498
X051830Y-004960
X051836Y-031223
X051895Y-020947
X052260Y-038340
X052308Y-023152
X052328Y-020435
X052385Y-019295
X052387Y-029569
X052426Y-028782
X052505Y-023900
X052880Y-037610
X053076Y-003978
X053115Y-019805
X053430Y-020160
X053470Y-020593
X053509Y-003624
X053510Y-038300
X053883Y-037530
X054001Y-038357
X054040Y-034813
X054070Y-027620
X054245Y-016730
X054715Y-018080
X054867Y-019656
X055120Y-038190
X055320Y-035711
X055753Y-039727
X056000Y-022780
X056060Y-038260
X056225Y-010711
X056934Y-040239
X057150Y-028030
X057200Y-039690
X057270Y-038985
X057890Y-023635
X058000Y-017255
X058010Y-038660
X058391Y-021538
X058430Y-022522
X058430Y-028073
X058509Y-029294
X058706Y-008821
X058863Y-003309
X058903Y-028152
X059110Y-038440
X059218Y-027640
X059828Y-023624
X059847Y-025868
X060143Y-038750
X060182Y-026242
X060230Y-030610
X060230Y-031250
X060536Y-027305
X060556Y-026577
X060674Y-018546
X061107Y-006183
X061340Y-001660
X061550Y-002710
X061705Y-025115
X062130Y-004500
X062564Y-006931
X062615Y-005535
X062690Y-002050
X062710Y-005930
X062721Y-010514
X062761Y-026183
X062918Y-024372
X062970Y-011860
X063076Y-025357
X063194Y-013467
X063195Y-001760
X063351Y-008979
X063415Y-040340
X063490Y-005500
X063548Y-027601
X063627Y-004097
X063680Y-002050
X063975Y-024995
X064290Y-001870
X064360Y-003070
X064570Y-003380
X064590Y-004470
X064590Y-005870
X064880Y-006860
X065195Y-003530
X065275Y-005190
X065380Y-013670
X065450Y-003320
X065650Y-006930
X065730Y-021490
X065870Y-023890
X065970Y-040590
X065990Y-004470
X065990Y-005870
X066100Y-026470
X066100Y-028360
X066160Y-031160
X066200Y-003455
X066290Y-034680
X066320Y-036040
X066540Y-003550
X066660Y-006690
X066720Y-001280
X066825Y-001945
X067570Y-004050
X068214Y-003002
X068320Y-009170
X068490Y-008450
X068568Y-033506
X068607Y-030278
X068706Y-026420
X068765Y-002530
X068780Y-016910
X068820Y-018980
X069060Y-024254
X069240Y-004090
X069355Y-005089
X069355Y-005483
X069505Y-001385
X069552Y-004892
X069552Y-005286
X069552Y-005679
X069749Y-005089
X069749Y-005483
X069790Y-004080
X069850Y-003240
X070090Y-004230
X070290Y-005990
X070390Y-002770
X070510Y-016145
X070800Y-004935
X070990Y-002770
X071000Y-005990
X071040Y-005190
X071390Y-003870
X071390Y-004470
X071390Y-005070
X071490Y-002770
X071490Y-003070
X071490Y-003470
X071590Y-005990
X071890Y-005470
X072190Y-002770
X072190Y-003020
X072190Y-003270
X072290Y-005990
X072390Y-005370
X072490Y-003370
X072660Y-016460
X072790Y-004970
X072890Y-005570
X072940Y-002770
X073190Y-004570
X073290Y-005170
X073537Y-020022
X073537Y-020495
X073590Y-004270
X073690Y-002770
X073690Y-004770
X074190Y-004270
X074190Y-004770
X074440Y-002770
X074790Y-004270
X074890Y-004770
X075170Y-022640
X075190Y-002770
X075190Y-003670
X075190Y-005470
X075420Y-034940
X075470Y-027840
X075580Y-018160
X075590Y-003670
X075690Y-005470
X075940Y-002770
X076470Y-012930
X076490Y-004270
X076490Y-004770
X076590Y-002770
T2
X021145Y-010235
X021760Y-011345
T3
X002440Y-029210
X002480Y-021760
X002620Y-039470
X002630Y-025710
X002680Y-013960
X002690Y-035690
X002760Y-032540
X002880Y-017610
X003250Y-040620
X005530Y-018860
X006120Y-040660
X009080Y-014410
X011050Y-040800
X011930Y-019060
X019570Y-040770
X024493Y-005829
X026120Y-040730
X031050Y-040660
X032010Y-024560
X032050Y-026840
X032130Y-035510
X032170Y-029900
X032260Y-040020
X039460Y-002950
X039570Y-006100
X043489Y-014892
X045550Y-006030
X045690Y-003050
X047800Y-012561
X054966Y-013703
X055250Y-025175
X056110Y-009260
X056350Y-006020
X058080Y-003050
T6
X018600Y-004419
X018994Y-003434
X019403Y-004419
X019797Y-003434
X020206Y-004419
X020600Y-003434
T7
X035690Y-018770
X035690Y-019770
X035690Y-020770
X035690Y-021770
X035690Y-022770
X035690Y-023770
X035690Y-024770
X035690Y-025770
X035690Y-026770
X035690Y-027770
X035690Y-028770
X035690Y-029770
X035690Y-030770
X035690Y-031770
X035690Y-032770
X035690Y-033770
X035690Y-034770
X035690Y-035770
X035690Y-036770
X035690Y-037770
X036690Y-018770
X036690Y-019770
X036690Y-020770
X036690Y-021770
X036690Y-022770
X036690Y-023770
X036690Y-024770
X036690Y-025770
X036690Y-026770
X036690Y-027770
X036690Y-028770
X036690Y-029770
X036690Y-030770
X036690Y-031770
X036690Y-032770
X036690Y-033770
X036690Y-034770
X036690Y-035770
X036690Y-036770
X036690Y-037770
X040190Y-015770
X040190Y-016770
X040190Y-017770
X040190Y-018770
X040190Y-019770
X040190Y-020770
X040190Y-021770
X040190Y-022770
X040190Y-023770
X040190Y-024770
X040190Y-025770
X040190Y-026770
X040190Y-027770
X040190Y-028770
X040190Y-029770
X040190Y-030770
X040190Y-031770
X040190Y-032770
X040190Y-033770
X040190Y-034770
X040190Y-035770
X040190Y-036770
X040190Y-037770
X040190Y-038770
X040190Y-039770
X041190Y-015770
X041190Y-016770
X041190Y-017770
X041190Y-018770
X041190Y-019770
X041190Y-020770
X041190Y-021770
X041190Y-022770
X041190Y-023770
X041190Y-024770
X041190Y-025770
X041190Y-026770
X041190Y-027770
X041190Y-028770
X041190Y-029770
X041190Y-030770
X041190Y-031770
X041190Y-032770
X041190Y-033770
X041190Y-034770
X041190Y-035770
X041190Y-036770
X041190Y-037770
X041190Y-038770
X041190Y-039770
X061190Y-015770
X061190Y-016770
X061190Y-017770
X061190Y-018770
X061190Y-019770
X061190Y-020770
X061190Y-021770
X061190Y-022770
X061190Y-023770
X061190Y-024770
X061190Y-025770
X061190Y-026770
X061190Y-027770
X061190Y-028770
X061190Y-029770
X061190Y-030770
X061190Y-031770
X061190Y-032770
X061190Y-033770
X061190Y-034770
X061190Y-035770
X061190Y-036770
X061190Y-037770
X061190Y-038770
X061190Y-039770
X062190Y-015770
X062190Y-016770
X062190Y-017770
X062190Y-018770
X062190Y-019770
X062190Y-020770
X062190Y-021770
X062190Y-022770
X062190Y-023770
X062190Y-024770
X062190Y-025770
X062190Y-026770
X062190Y-027770
X062190Y-028770
X062190Y-029770
X062190Y-030770
X062190Y-031770
X062190Y-032770
X062190Y-033770
X062190Y-034770
X062190Y-035770
X062190Y-036770
X062190Y-037770
X062190Y-038770
X062190Y-039770
T9
X004190Y-020770
X004190Y-021770
X004190Y-022770
X004190Y-023770
X004190Y-024770
X004190Y-025770
X004190Y-026770
X004190Y-027770
X004190Y-028770
X004190Y-029770
X004190Y-030770
X004190Y-031770
X004190Y-032770
X004190Y-033770
X004190Y-034770
X004190Y-035770
X004190Y-036770
X004190Y-037770
X004190Y-038770
X004190Y-039770
X005190Y-020770
X005190Y-021770
X005190Y-022770
X005190Y-023770
X005190Y-024770
X005190Y-025770
X005190Y-026770
X005190Y-027770
X005190Y-028770
X005190Y-029770
X005190Y-030770
X005190Y-031770
X005190Y-032770
X005190Y-033770
X005190Y-034770
X005190Y-035770
X005190Y-036770
X005190Y-037770
X005190Y-038770
X005190Y-039770
X006190Y-020770
X006190Y-021770
X006190Y-022770
X006190Y-023770
X006190Y-024770
X006190Y-025770
X006190Y-026770
X006190Y-027770
X006190Y-028770
X006190Y-029770
X006190Y-030770
X006190Y-031770
X006190Y-032770
X006190Y-033770
X006190Y-034770
X006190Y-035770
X006190Y-036770
X006190Y-037770
X006190Y-038770
X006190Y-039770
X007190Y-020770
X007190Y-021770
X007190Y-022770
X007190Y-023770
X007190Y-024770
X007190Y-025770
X007190Y-026770
X007190Y-027770
X007190Y-028770
X007190Y-029770
X007190Y-030770
X007190Y-031770
X007190Y-032770
X007190Y-033770
X007190Y-034770
X007190Y-035770
X007190Y-036770
X007190Y-037770
X007190Y-038770
X007190Y-039770
X008190Y-020770
X008190Y-021770
X008190Y-022770
X008190Y-023770
X008190Y-024770
X008190Y-025770
X008190Y-026770
X008190Y-027770
X008190Y-028770
X008190Y-029770
X008190Y-030770
X008190Y-031770
X008190Y-032770
X008190Y-033770
X008190Y-034770
X008190Y-035770
X008190Y-036770
X008190Y-037770
X008190Y-038770
X008190Y-039770
X009190Y-020770
X009190Y-021770
X009190Y-022770
X009190Y-023770
X009190Y-024770
X009190Y-025770
X009190Y-026770
X009190Y-027770
X009190Y-028770
X009190Y-029770
X009190Y-030770
X009190Y-031770
X009190Y-032770
X009190Y-033770
X009190Y-034770
X009190Y-035770
X009190Y-036770
X009190Y-037770
X009190Y-038770
X009190Y-039770
X010190Y-020770
X010190Y-021770
X010190Y-022770
X010190Y-023770
X010190Y-024770
X010190Y-025770
X010190Y-026770
X010190Y-027770
X010190Y-028770
X010190Y-029770
X010190Y-030770
X010190Y-031770
X010190Y-032770
X010190Y-033770
X010190Y-034770
X010190Y-035770
X010190Y-036770
X010190Y-037770
X010190Y-038770
X010190Y-039770
X011190Y-020770
X011190Y-021770
X011190Y-022770
X011190Y-023770
X011190Y-024770
X011190Y-025770
X011190Y-026770
X011190Y-027770
X011190Y-028770
X011190Y-029770
X011190Y-030770
X011190Y-031770
X011190Y-032770
X011190Y-033770
X011190Y-034770
X011190Y-035770
X011190Y-036770
X011190Y-037770
X011190Y-038770
X011190Y-039770
X012190Y-020770
X012190Y-021770
X012190Y-022770
X012190Y-023770
X012190Y-024770
X012190Y-025770
X012190Y-026770
X012190Y-027770
X012190Y-028770
X012190Y-029770
X012190Y-030770
X012190Y-031770
X012190Y-032770
X012190Y-033770
X012190Y-034770
X012190Y-035770
X012190Y-036770
X012190Y-037770
X012190Y-038770
X012190Y-039770
X013190Y-020770
X013190Y-021770
X013190Y-022770
X013190Y-023770
X013190Y-024770
X013190Y-025770
X013190Y-026770
X013190Y-027770
X013190Y-028770
X013190Y-029770
X013190Y-030770
X013190Y-031770
X013190Y-032770
X013190Y-033770
X013190Y-034770
X013190Y-035770
X013190Y-036770
X013190Y-037770
X013190Y-038770
X013190Y-039770
X014190Y-020770
X014190Y-021770
X014190Y-022770
X014190Y-023770
X014190Y-024770
X014190Y-025770
X014190Y-026770
X014190Y-027770
X014190Y-028770
X014190Y-029770
X014190Y-030770
X014190Y-031770
X014190Y-032770
X014190Y-033770
X014190Y-034770
X014190Y-035770
X014190Y-036770
X014190Y-037770
X014190Y-038770
X014190Y-039770
X015190Y-020770
X015190Y-021770
X015190Y-022770
X015190Y-023770
X015190Y-024770
X015190Y-025770
X015190Y-026770
X015190Y-027770
X015190Y-028770
X015190Y-029770
X015190Y-030770
X015190Y-031770
X015190Y-032770
X015190Y-033770
X015190Y-034770
X015190Y-035770
X015190Y-036770
X015190Y-037770
X015190Y-038770
X015190Y-039770
X016190Y-020770
X016190Y-021770
X016190Y-022770
X016190Y-023770
X016190Y-024770
X016190Y-025770
X016190Y-026770
X016190Y-027770
X016190Y-028770
X016190Y-029770
X016190Y-030770
X016190Y-031770
X016190Y-032770
X016190Y-033770
X016190Y-034770
X016190Y-035770
X016190Y-036770
X016190Y-037770
X016190Y-038770
X016190Y-039770
X017190Y-020770
X017190Y-021770
X017190Y-022770
X017190Y-023770
X017190Y-024770
X017190Y-025770
X017190Y-026770
X017190Y-027770
X017190Y-028770
X017190Y-029770
X017190Y-030770
X017190Y-031770
X017190Y-032770
X017190Y-033770
X017190Y-034770
X017190Y-035770
X017190Y-036770
X017190Y-037770
X017190Y-038770
X017190Y-039770
X018190Y-020770
X018190Y-021770
X018190Y-022770
X018190Y-023770
X018190Y-024770
X018190Y-025770
X018190Y-026770
X018190Y-027770
X018190Y-028770
X018190Y-029770
X018190Y-030770
X018190Y-031770
X018190Y-032770
X018190Y-033770
X018190Y-034770
X018190Y-035770
X018190Y-036770
X018190Y-037770
X018190Y-038770
X018190Y-039770
X019190Y-020770
X019190Y-021770
X019190Y-022770
X019190Y-023770
X019190Y-024770
X019190Y-025770
X019190Y-026770
X019190Y-027770
X019190Y-028770
X019190Y-029770
X019190Y-030770
X019190Y-031770
X019190Y-032770
X019190Y-033770
X019190Y-034770
X019190Y-035770
X019190Y-036770
X019190Y-037770
X019190Y-038770
X019190Y-039770
X020190Y-020770
X020190Y-021770
X020190Y-022770
X020190Y-023770
X020190Y-024770
X020190Y-025770
X020190Y-026770
X020190Y-027770
X020190Y-028770
X020190Y-029770
X020190Y-030770
X020190Y-031770
X020190Y-032770
X020190Y-033770
X020190Y-034770
X020190Y-035770
X020190Y-036770
X020190Y-037770
X020190Y-038770
X020190Y-039770
X021190Y-020770
X021190Y-021770
X021190Y-022770
X021190Y-023770
X021190Y-024770
X021190Y-025770
X021190Y-026770
X021190Y-027770
X021190Y-028770
X021190Y-029770
X021190Y-030770
X021190Y-031770
X021190Y-032770
X021190Y-033770
X021190Y-034770
X021190Y-035770
X021190Y-036770
X021190Y-037770
X021190Y-038770
X021190Y-039770
X022190Y-020770
X022190Y-021770
X022190Y-022770
X022190Y-023770
X022190Y-024770
X022190Y-025770
X022190Y-026770
X022190Y-027770
X022190Y-028770
X022190Y-029770
X022190Y-030770
X022190Y-031770
X022190Y-032770
X022190Y-033770
X022190Y-034770
X022190Y-035770
X022190Y-036770
X022190Y-037770
X022190Y-038770
X022190Y-039770
X023190Y-020770
X023190Y-021770
X023190Y-022770
X023190Y-023770
X023190Y-024770
X023190Y-025770
X023190Y-026770
X023190Y-027770
X023190Y-028770
X023190Y-029770
X023190Y-030770
X023190Y-031770
X023190Y-032770
X023190Y-033770
X023190Y-034770
X023190Y-035770
X023190Y-036770
X023190Y-037770
X023190Y-038770
X023190Y-039770
X024190Y-020770
X024190Y-021770
X024190Y-022770
X024190Y-023770
X024190Y-024770
X024190Y-025770
X024190Y-026770
X024190Y-027770
X024190Y-028770
X024190Y-029770
X024190Y-030770
X024190Y-031770
X024190Y-032770
X024190Y-033770
X024190Y-034770
X024190Y-035770
X024190Y-036770
X024190Y-037770
X024190Y-038770
X024190Y-039770
X025190Y-020770
X025190Y-021770
X025190Y-022770
X025190Y-023770
X025190Y-024770
X025190Y-025770
X025190Y-026770
X025190Y-027770
X025190Y-028770
X025190Y-029770
X025190Y-030770
X025190Y-031770
X025190Y-032770
X025190Y-033770
X025190Y-034770
X025190Y-035770
X025190Y-036770
X025190Y-037770
X025190Y-038770
X025190Y-039770
X026190Y-020770
X026190Y-021770
X026190Y-022770
X026190Y-023770
X026190Y-024770
X026190Y-025770
X026190Y-026770
X026190Y-027770
X026190Y-028770
X026190Y-029770
X026190Y-030770
X026190Y-031770
X026190Y-032770
X026190Y-033770
X026190Y-034770
X026190Y-035770
X026190Y-036770
X026190Y-037770
X026190Y-038770
X026190Y-039770
X027190Y-020770
X027190Y-021770
X027190Y-022770
X027190Y-023770
X027190Y-024770
X027190Y-025770
X027190Y-026770
X027190Y-027770
X027190Y-028770
X027190Y-029770
X027190Y-030770
X027190Y-031770
X027190Y-032770
X027190Y-033770
X027190Y-034770
X027190Y-035770
X027190Y-036770
X027190Y-037770
X027190Y-038770
X027190Y-039770
X028190Y-020770
X028190Y-021770
X028190Y-022770
X028190Y-023770
X028190Y-024770
X028190Y-025770
X028190Y-026770
X028190Y-027770
X028190Y-028770
X028190Y-029770
X028190Y-030770
X028190Y-031770
X028190Y-032770
X028190Y-033770
X028190Y-034770
X028190Y-035770
X028190Y-036770
X028190Y-037770
X028190Y-038770
X028190Y-039770
X029190Y-020770
X029190Y-021770
X029190Y-022770
X029190Y-023770
X029190Y-024770
X029190Y-025770
X029190Y-026770
X029190Y-027770
X029190Y-028770
X029190Y-029770
X029190Y-030770
X029190Y-031770
X029190Y-032770
X029190Y-033770
X029190Y-034770
X029190Y-035770
X029190Y-036770
X029190Y-037770
X029190Y-038770
X029190Y-039770
X030190Y-020770
X030190Y-021770
X030190Y-022770
X030190Y-023770
X030190Y-024770
X030190Y-025770
X030190Y-026770
X030190Y-027770
X030190Y-028770
X030190Y-029770
X030190Y-030770
X030190Y-031770
X030190Y-032770
X030190Y-033770
X030190Y-034770
X030190Y-035770
X030190Y-036770
X030190Y-037770
X030190Y-038770
X030190Y-039770
X031190Y-020770
X031190Y-021770
X031190Y-022770
X031190Y-023770
X031190Y-024770
X031190Y-025770
X031190Y-026770
X031190Y-027770
X031190Y-028770
X031190Y-029770
X031190Y-030770
X031190Y-031770
X031190Y-032770
X031190Y-033770
X031190Y-034770
X031190Y-035770
X031190Y-036770
X031190Y-037770
X031190Y-038770
X031190Y-039770
X034812Y-014656
X035812Y-014656
X036540Y-012455
X036540Y-013455
X036812Y-014656
X067720Y-014940
X068155Y-001325
X068720Y-014940
X069720Y-014940
X070720Y-014940
X071720Y-014940
X072720Y-014940
X075733Y-006892
X075733Y-007892
X075733Y-008892
X075733Y-009892
X075733Y-010892
X075733Y-011892
T10
X074425Y-003515
X074425Y-005515
X075425Y-004515
X076425Y-003515
X076425Y-005515
T4
X032470Y-000835G85X032470Y-000579
G05
X035226Y-000835G85X035226Y-000579
G05
T5
X032923Y-001770G85X032805Y-001770
G05
X034891Y-001770G85X034773Y-001770
G05
T8
X002721Y-003853G85X002721Y-004167
G05
X003706Y-003853G85X003706Y-004167
G05
X004847Y-002042G85X004533Y-002042
G05
X005674Y-003853G85X005674Y-004167
G05
X006659Y-003853G85X006659Y-004167
G05
T0
M30
